/* XPM */
static char *c44bfa579e064440e550294613172b4e0QPWTx55BcTMXITe[] = {
/* columns rows colors chars-per-pixel */
"64 64 247 2 ",
"   c #762E01",
".  c #6B3500",
"X  c #7B3C03",
"o  c #743802",
"O  c #793B10",
"+  c #7D3D22",
"@  c #7C4509",
"#  c #735012",
"$  c #77660B",
"%  c #7A6715",
"&  c #756D16",
"*  c #7D7624",
"=  c #786626",
"-  c #5C4614",
";  c #853B05",
":  c #84440D",
">  c #89460C",
",  c #874713",
"<  c #895317",
"1  c #97571B",
"2  c #994B17",
"3  c #A1571A",
"4  c #87681D",
"5  c #86761B",
"6  c #94791C",
"7  c #8D6812",
"8  c #8C4B27",
"9  c #9C5624",
"0  c #965A2E",
"q  c #8D6B24",
"w  c #986B25",
"e  c #887926",
"r  c #947827",
"t  c #967936",
"y  c #AB6B2C",
"u  c #A56726",
"i  c #B26C2E",
"p  c #A37B2B",
"a  c #B3712D",
"s  c #A87637",
"d  c #B1743B",
"f  c #B97839",
"g  c #AF6A38",
"h  c #A95821",
"j  c #C47B2A",
"k  c #C47D3C",
"l  c #C87B33",
"z  c #D27E39",
"x  c #BA7A45",
"c  c #AB7948",
"v  c #C07F47",
"b  c #7D8427",
"n  c #8A8629",
"m  c #96832A",
"M  c #988C35",
"N  c #8E9133",
"B  c #989938",
"V  c #8C8132",
"C  c #A58737",
"Z  c #BD833B",
"A  c #B98638",
"S  c #A5993A",
"D  c #B18831",
"F  c #96B23B",
"G  c #9BA13F",
"H  c #A4AA3E",
"J  c #C68739",
"K  c #D4873C",
"L  c #D9963E",
"P  c #C7832E",
"I  c #9A8946",
"U  c #BD8441",
"Y  c #BD8D44",
"T  c #B68846",
"R  c #AA9745",
"E  c #B8974A",
"W  c #A88A4B",
"Q  c #9BB542",
"!  c #9DBA44",
"~  c #9EBA4B",
"^  c #98B54A",
"/  c #9EB149",
"(  c #A9A846",
")  c #B1AB4B",
"_  c #A0BD45",
"`  c #A2BE4B",
"'  c #A5B54C",
"]  c #B9AA57",
"[  c #A4BD53",
"{  c #A9BA54",
"}  c #B7BC57",
"|  c #B2B04E",
" . c #BAB761",
".. c #B9B56E",
"X. c #C38343",
"o. c #C48B44",
"O. c #C48C4A",
"+. c #CC8A4B",
"@. c #C98648",
"#. c #D48B46",
"$. c #CD934C",
"%. c #C89546",
"&. c #DC9C45",
"*. c #D39A4B",
"=. c #DC9C4D",
"-. c #D69549",
";. c #C98953",
":. c #D28E52",
">. c #D98556",
",. c #CC9353",
"<. c #C79955",
"1. c #D49455",
"2. c #D59B54",
"3. c #DB9C53",
"4. c #DB9C5C",
"5. c #D7985A",
"6. c #E19E4C",
"7. c #E09948",
"8. c #E29D54",
"9. c #E19D5B",
"0. c #E89D5C",
"q. c #D5A14D",
"w. c #DBA24C",
"e. c #DBA549",
"r. c #CAA557",
"t. c #D5A253",
"y. c #DCA354",
"u. c #DBA956",
"i. c #DCA45A",
"p. c #DBAA5B",
"a. c #D5A65A",
"s. c #C6AF53",
"d. c #E3A34B",
"f. c #E5A347",
"g. c #E3A454",
"h. c #E5AA53",
"j. c #E3A25C",
"k. c #E2AB5C",
"l. c #EAAA5B",
"z. c #EAA659",
"x. c #EAB35E",
"c. c #DE9E64",
"v. c #D59B61",
"b. c #E29E65",
"n. c #DCA563",
"m. c #D8A965",
"M. c #CFB167",
"N. c #DBB264",
"B. c #DBB973",
"V. c #CFA864",
"C. c #E4A364",
"Z. c #E4AC62",
"A. c #ECAA63",
"S. c #EAA569",
"D. c #E9AA69",
"F. c #E5A567",
"G. c #F0AC65",
"H. c #E4B66B",
"J. c #EDB175",
"K. c #A2C146",
"L. c #A5C24C",
"P. c #AAC44E",
"I. c #ABCB4D",
"U. c #A7CA4C",
"Y. c #B1CC4C",
"T. c #B3D24E",
"R. c #BAD64E",
"E. c #A5C252",
"W. c #AAC552",
"Q. c #ADCB54",
"!. c #ACC65B",
"~. c #AECA5A",
"^. c #A7CB51",
"/. c #B3C555",
"(. c #B2CD55",
"). c #B9C55C",
"_. c #B3CD5B",
"`. c #BACE5C",
"'. c #B9C757",
"]. c #ADD355",
"[. c #AED955",
"{. c #AFD45C",
"}. c #AED95A",
"|. c #B5D455",
" X c #B9D456",
".X c #B3D956",
"XX c #BAD955",
"oX c #B6D45B",
"OX c #B9D45C",
"+X c #B4D95B",
"@X c #BAD95D",
"#X c #AAD64F",
"$X c #ADCC62",
"%X c #AEC762",
"&X c #B3CD62",
"*X c #BACD63",
"=X c #B6CC69",
"-X c #BCCD6B",
";X c #B8C664",
":X c #ADD564",
">X c #B6D362",
",X c #BAD462",
"<X c #B6DA62",
"1X c #BCDA63",
"2X c #B6D26A",
"3X c #BBD46A",
"4X c #BEDA6A",
"5X c #B4DB69",
"6X c #BCCF73",
"7X c #BCD472",
"8X c #BCD674",
"9X c #BAE163",
"0X c #C6C65C",
"qX c #C3D75E",
"wX c #C0E15F",
"eX c #C3CC63",
"rX c #C6CA67",
"tX c #D1CC66",
"yX c #C3D464",
"uX c #C1DA64",
"iX c #C3D46A",
"pX c #CAD46B",
"aX c #C2DC6B",
"sX c #CAD666",
"dX c #D3D56C",
"fX c #C6CB75",
"gX c #C3D473",
"hX c #C4DB73",
"jX c #C9D878",
"kX c #D7DA75",
"lX c #E0C470",
"zX c #C2E164",
"xX c #C5E26B",
"cX c #C7E279",
"vX c #CBE47C",
"bX c #CFEA7D",
"nX c #C6E274",
"mX c #D3E678",
"MX c #BFC980",
"NX c #C9D784",
"BX c #D4DB88",
"VX c #CFE680",
"CX c #D3E985",
"ZX c #DAF48C",
"AX c #D8F283",
"SX c #D6E195",
"DX c #E3FA96",
/* pixels */
"|. X X XoXOX X(.|. X X|.|.OXOXoX,X>X`.`.1X1XOXoX X@X@X|.oXoX<X+XoX[.1X>X>X3X&X&X,XOXoX X X X|.|.OXoXoXoXoXOX,X,X4X&X&XaXhX&X=XgX",
"|. X XoX XOXOXoX@X X X X X|.oXoX(.3X*XaXW.OX(.1XoXOX@XOXoXoXoXoX|.+XoX,X&XhX3XiX,XOXoX X X X X X|.|.oXOX,X,XoXoX_.4X_.&X{ iX3X3X",
"oX XOX X XOXOXOXOX|.|.OXOXoXoX,X3X3X_.,X>XaXOX_._.OX1X,XOX1X>XoXoX,X_.aX&XCXgXvX*XOXOXoX X XOXoXoXoXOXOX,XOX<XoX,X!.nXbXZX&X3XhX",
"oX XOX XOXOX,XOXoXoXOXOX,XOXOX,X&X2XCX3XaXE.,XaXOX1X1XoX`.>X,X,XOX@X_.iX;XVXgXvX*X>XOXOXoXoXoXoX1X@X|.oXoXoX<X,X,X,XbX,XvX&XhX3X",
"oXOXOXOXoXoXoXoX_.1X4XoX_.,X,X_.8X=XhX&XbX,XaX~.1X>X`././.`.,X1XOX`.,X*X3XjXgXgX*X,X1X,XoXoX<X<XoX|.oXoXoXoXoX<X_.aX>XnX~.aX&X3X",
">XOX,X,XoXQ.Q.(._ (._.P.W.oX1X>X!.7XnXcX>X>X&X4X,XoX(.P.P.(.OX1XoX(.,X&X3X3X-X*X*X,X,X,XoXoX<X,XQ.|.@X1X1XOXOXoX,X_._.AXhX3X~.hX",
">X,X,X,X_.W.P.W.Q P.W.P.P._.,X,X,X3X!.4X>XxX_._.oXoXoXQ.Q.(.OXoX|.|.oX>X&X4X&X>X>X,XoXoX(.Q.~.~.L.I.|.oXoXoXoXOX>X>X4X` _._.hXiX",
",X,X,X,X_.E.` ` Q.(.(.Q.Q.Q.oX,X>X>X,X>XoXoXoX,XoX+X<XoXoX|..X.X.X.X].<XQ.nX$X3XoXOXoX(.P._ ` _ K.K.K._ _ L.Q.oX,X_._.4XaX_._.,X",
",X_.,X,X~.,X4X_.>X,X>X>XOXOXOXOXOXoXOXOXoXoXoX@X+XoX[.oX+X+X+X[.#X[..X+XoX{.{.oXQ. X@X|.Q.P.P._ Q.L.K.L.L.K.L.Q.OXoXoX,X>XOX>XyX",
",X_.,X!.AX!.~.aX>X>X>XOXOXOXOXOXuXOX XoXoX|.oX|..X.X+X.X+X.X[.[..X.X.X+X<X<XoX{.@XXX X XOXqX1XOX1X|.|.OXOX|.OX1XOXoXoX,X>XOX>XyX",
">X&X4XaXaX4X4X_.>X>XOXOXOXOXOXOXOX X|. X X X|.|.oXoX@X@XoXoX|..XXXXX.XoXoXoX+X1XXX|.T.|. XoXOXOX|. X|. XOX|.oX|.OXoXoXOXOXOX@XuX",
">X&X4XnX_.aXaXQ.>XOXOXOXOXOXOX|.|.|. X X X XoX_.1X1XOX`.`.OXyXuX'. XOXOX,X>XOXoX|. XXX@X X(.oX1XoX X|. XOXoXoXoXOXoXoXOXOXOX@XuX",
"3X&X3X_.AX~._.4XOXOXOX XOXOXOX|.|. X X XoXoXOX`.eXeXpXdXdXtX0X} 0X0X0XtXdXkXsX`.OX XOXXX XoXOX4X|.|.|.|.|.|.OXoXOXoXoXOXOXoX@XuX",
"3X&X,X_.aX_.>X,XOXOX X XOX X X|..X+X X|.OXuXiXpXpXs.S m 6 6 m m 6 6 m C S ) 0XpXyXqXoX(.oX,X>X~.|.|.oX|.|.oX|.oXOXoXoXOXOXoX@XuX",
",X_.>X4XE.4XaXQ.OXOX X X X X X|..X}.}.oX,XiX).} * r C E r.a.a.t.u.u.a.E C m M S ).yXuX1X1X4X5X{.<X@X@X X X@X@XOX XoXoXOXOXoXOXuX",
",X_.OXQ.nXQ._.1XOX X X X X XOXoX}.[.oXoX0X} S 5 ] r.M.m.p.i.4.3.3.2.t.p.H.N.E C n ) sXyX&X>X5XoX]. X|.oXoXoXoX|. XoXoX X XoXOX1X",
"_.OX XXX.XoX>X<XoX@XXXXXXXI.,X<X[..X XsXS 7 p N.N.r.N.N.2.2.A.j.j.t.%.q.H.n.v.J.r.6 S tXfX&X5X].wXI.OXxX_.>X4XQ.oX X X X X XOX,X",
",XOX X X.X].{.>XoX|.Y.R.qXXX,X~.<XQ.yX| 7 D k.$.u 1 s O.,.5.:.a $.k.x.h.$.y u +.i.u.r e fXjX&XU.T.T.1XW.&XhX!.aXoX X X|. X XOX1X",
"1XOX X X.X+X2X3X>X1XR.XXR.I.,X4X&XhXrX% C ,.J.v o . 1 O.D.D.f   y %.w.%.u X X u D.p.N.E * jX' P.|.zXOX4X&X=XCX,X>XOX X X|.|.OX,X",
"OXoX X X@X4X3X7X&X,X XXXY.K.~.&X{ BXe r <.F.5.:.9 d 5.n.4.1.:.k 3.y.g.y.*.J U 1.4.$.a.M.R n pXQ W.OXQ.aX&X%XCX!.>XOX|.|.oXoX>X,X",
"OXoX|.|.oX>X=X=X-X*X(.XXXXI.E.^  .M % E ,.F.9.9.D.C.i.2.2.j.l.g.l.g.2.3.j.i.i.n.4.J.<.r.lXe ( eXiX,XnX&XvXZX2XZX>X,XOXoXOX>X,X3X",
"oX|. XOX>X-X6XfXjXgX_. X XQ.oX&X} # E A 4.4.9.j.-.i.k.k.y.w.=.d.d.g.j.i.i.t.y.i.F.,.,.H.%.s.r ) iX~.>X!.2XhX!.cX>X<X>X>X>X,X,X3X",
"oXoX XOX,XgXNXSXNXNX,XOX|.Q.3XhXM p A %.3.G.J 8.l.y.*.w.x.k.w.=.7.6.Z.F.i.y.y.t.d : < O.q.q.H.% *X3X&XaX&X!.cX&X>X>X>X>X*X,X,X,X",
"oX.X XoX*XfXNXSXNXgX_.OX1X|.>X} 7 %.A $.A.8.#.-.3.j.i.y.*.o.$.z.h.6.5.4.i.u.q.%.o 1 : y y.t.i.E ( ,X,X_.4X,X!.4X>X>X>X>XOX,X,XyX",
"+X|.|.oX*X-XfXMXNXgX,XoX|.oXmXN p Z @.4.9.3 ; y S.4.5.F.,., X a L 6.C.c.t.u.w.*., : X X.g.-.F.E N aX_._.4X_.4XoX_.4XoXuX/.1XuX@X",
"+X.X XOXyXgXNXNXNX7X>XoXoXOX).e Y J @.0.9.1 > k S.F.b.b.@.: o y 8.g.j.4.i.u.u.t.d , 2 :.A.k.C.<.N iX>X1XuXP.oX1X1XW._ uXOXOXOXuX",
"oX|. XOXyXjXNXNX8X7X>XoXOXsX( 5 A J #.8.j.#.@.j.5.4.C.F.c.v x C.8.=.3.2.y.y.y.i.4.v.b.C.1.9.J.<.n `.yXOX(._ (.@XoXL._ ,XOXoX XqX",
"oX|. X XqXiXjXNX6X2X<XOXOXkXN r J K #.-.g.l.l.y.3.j.3.9.D.F.C.D.g.g.y.i.u.y.t.i.D.C.:.S.S.1.c.V.n ).kX/.L.P.@X|.W.Q.>X_.W.oX@XOX",
"oX|. X X`.,X3X8X$X:X<X X'.dXe C J j P &.w.&.&.e.h.h.=.-.y.g.3.*.g.g.g.y.y.2.3.i.:.A.S.+.g , , <.M ' kX/.P.Y.@XoXE.~.4XW.` >X1X X",
"oXOX X X'.`.*X2X:X:X@X X'.tX5 A J l K =.=.&.e.h.e.e.d.d.w.g.h.g.3.y.e.q.q.t.n.Z.3.-.5.> O < @ r.R N )././.F L.Q.oX~ $XE.!.>XOX1X",
"OXOX X X XOX>X>X5X}.+X X0XtXr T +.@.@.+.2.i.t.t.w.w.g.g.=.=.3.3.3.y.h.e.k.Z.C.5.A.8.C.f 8 @ 1 B.] * { /./.F Q W.3X^ %X[ !.!.~.uX",
"oXoX X XOXOX>X>X5X]..X XqX0Xr T x 9 , d 4.4.2.i.k.=.3.j.j.C.C.4.5.3.w.e.y.2.X.y a 8.9.S.;.x J.r. .n ).).`.P.Q._.>X~ 2X[ [ [ W.aX",
"|.|.oX1X,X(.E.!.4XQ oX`.eXdXe W s . , ;.v.5.4.G.=.g.3.D.;.0 0 8 : 1.3.y.k.o.@ X 1 9.j.j.j.j.b.m.] n pXeX,X`.uXoXoXoXoX<X<X~.~.iX",
"|. XoX,X3X_.!.&XaXW.(.W.iXkXn M T d d x c.J.:.a A.A.3.4.d O + 8 , :.3.y.u.%.< @ d 4.-.-.=.j.b.m.R N rXeX,XOX@X|. X X|.@X1X_._.aX",
"XXXXoXoX_.W._ P.W.W._ Q '.eXn r J #.+.f b.c.1 : y 2.4.n.U , O , : @.4.t.u.i.Y U 1.i.3.l.z.A.C.m.M ' eXeXOXOXOX X X.X XoX1XOX>XaX",
"XXXX X|.(.L.Q _ F L._ ! ' } B 5 J l K k 5.x . X X O.Z.Z.i.O.d u f 5.i.t.i.p.i.k.j.j.k.A.$.O.,.V.n *XeXyXOX@XoX@X|. XoX|.1XOXOXaX",
"T.XX X|.oX(.Q.(.K.U.].|.P.'.).5 J l K l @.1.u 1 p a.p.*.i.k.i.t.Z.i.2.2.k.i.w.=.g.3.3.+.< @ w E n pX*X1XOXOX|.+X X.XoX|.,XOXOX,X",
"T.XX X X@XOXoX@X.X].XXXXoXyXiX5 A l #.k k 1.4.*.i.k.t.*.y.y.y.Z.3.t.i.i.Z.3.e.h.d.=.3.f o . # r G aX*X1XoXoXoX.X+X+XoX|.,XOXOX,X",
"T.XX X|.OXoXoX|.oX.X+XQ.,X,XiXR w f X.@.k J =.h.w.&.e.g.g.y.2.3.3.k.Z.,.3.-.&.f.f.6.j.,.s s q 5 } >X>X1XoX|..XoX].+X+X|.OXoX>XaX",
"|.XX|.oXOXOXoXOX^.9X<X^.4X&X3XfXq Y U X.o.j J j 7.&.d.6.=.k.F.j.y.=.f 1 @.3.f.&.f.6.j.n.m.B.R n iX_.oX1XoX|.+X[.U.oX|.oXoXoX>XaX",
"@X|.oXOX,X>X>X,XoXoX<X<X>X2X7XfXR q C Y J P j K z K 7.7.8.j.4.j.y.3.u X y 3.f.f.f.-.Z.4.V.M.$ rX,X<XoX<X+XoX].^.K.^.|.oXoXoX,XOX",
"oXoX,X,X,X,X>XoXoXoXoX>X>X2X6XfXfXe e R A Z l K l z v #.0.z.k.k.l.=.u 2 @.G.g.L &.l.2.m.B.r ] eXOX|.oXoXoXoX|.].L.Q.oXoXoXoX,X,X",
"oX<X,X_._.*X>XoXoX1XoX{.3X7XjXCXfXeXS $ r $.@.f >.g 2 h #.8.=.-.=.A.5.:.c.j.3.l.l.A N.B.R e kXeXOX|.|.|.|.|.|.oXQ.|.OXOXoXoX,X1X",
"oX1X>XW.{ ~.,X>XoXoXQ.<XDXDXjX=X_.OXsX| 5 4 d ;.;.9   ; a K J J -.5.2.4.n.$.U <.Y p.E C & kX} iX X|.|.|.|.|.oX|.|.|.OXOXoXoX,X1X",
"+X<XoXW.[ (.1X@X(.xX1XQ.!.&XgXDXP.@XOXsXrXM 4 W T c g x X.Z D J f f A Z d q < q T C r $ eXyXyXOX XXX X X X|.OXOX|.oXOXOXoXoXOX1X",
"oX<X1XoX_.OX@X X(. X(.oXhXhX;X;X1X|.(.OXyXkX} & M I W T O.o.A J O.+.O.Y t # # = t = m tXsX_.1XoX|. X@X X X X XOXOX|.oXOXoXoXOX1X",
"[..XXXOX@XOXOX X XXX X|.>X,X-X-X`.uXoX X X X_./ b e e q s A A Z f s w w q % - - = ] fX`.uXwX[.].|.|. XOX XoXOXOXOXoXoXOXoXoXoX1X",
".X|.|.oXOXOXoXOXOX X XOXoX>XiXiX,X_.|.zX.X.XzX_ &X;X) M m r 6 w 4 t S S M V I R ..BX{ OX XU.@X+XQ.(.oX XoXoXoXOXOXoXoXOXOXoXoX1X",
"|.@XoX4X_.3X&X,X3X,X,XoXoX X X X(.oX@X@X@XoXQ.~ ` ' W.*X} dXH ( ' ;XpX*X{ { { %X{ { (.oX X|.oX|.! Q.OXoXoXoXOXoXoXoX_.,X1XoX,X4X",
"|.(.oXoX,X>X3X3X2X>X>X>XOX|. X X X|.|.oX,X,X_.W.Q.~.oX>XW.uXP._.Q W.oXQ.P.L._ ! W.Q.(.|. X X|.oXL.oX,XoXoXOX,XoXOXoXoXoXOXoXOX,X",
"1XOX1X_.,X!.&X!.&X>X>X,XOX X X X.XoXQ.Q.oX1XOX_.oX,X,X,X_.OXOX4X(.oX,XOXoXOXoXP.oX|.|.|.|. X X|.oXoX,XoXoX,X1XOXoXoXOXoXoXoXOXOX",
"|.(.oXoX4X4XvXvX>X>X>X,XOX X X X.X|.I.Q.oX@X,XoXOX,XoXoX,X>X,X_.1XOXoX|.|.@XOX|.|.|.|.oX X X X|.oXoXoXQ.(.oX,X,XP._.4XoXoX,X,X4X",
"@X@X(.oX~.>X&X3X3X,X,X<XoX|.XXXX@XoXQ.Q.|. X X|.oXOX_.oX,X,X3X!.OX X|.(.|. X X|.|.oX|.|.|.|.|.|.oX_.Q.L.W._.oXoX_ Q.aXOX_.,XoX1X",
"|.@XoXaX,XbXbXZX3X3X,X<XoX|.XX@X1XoX_.|.XXXX X X X@X1X,X_.3X-X3XoX XXX@XXX@X X X|.|.OXOX@XOXOXOXoXQ.P._ L.P.Q._._ P.4XoX(.,X_.4X",
"|.oX_.oX_._._._.,X,X>X<XoXoX|.OX,XoXoX XXX|.|.XX X X1X,X~.jX3XjX(.|.|. X|.oXoXoXoXoXoXoX<X<X,X,XOX_.W._ ! _ L.W.L.! (.Q.Q.1XQ.4X",
"|.|.4XoX4XoX,X&X&X>X>X,X,XOXoX|.oXoXoX X XT.T.XXXXY._.,X&XZX-XhX,X|.|.|.oXoX,X1X<X>X>X_.&X>X>X>X4XoXQ.L.! Q ! L.W.F _ _ Q.4X(.aX",
"|. XoXoX,X,X~.~ 4X>X_.Q.OX4X(.oXoXoXOX X XXXXXXX X XoXoX,XgXjXvX,XOXOXOX,X,X>X,X,X>X!.bX2XVX3X&XoXoXoXoXoXoXoXoX,XoXoX_.oXoXOX1X",
"|.oXoXOX,X,X!.E.>X!.~.W._.,XoX1XoXoXoX|. X X|.XXXX XoXoX,X3X7X7X,XoXoX<X<X>X>X>X>X4X&XZX2XcX&XhX,XOXOXOXOXOXOXOX,X,XoXoXoXOX1X4X",
"OX|.oXOXoXQ.` ~ ~ ~ ` Q ! L.L.OXoXoXoX|. X X X X X XOX,X,X,X=X&X,X<X<X>X>X>X>X>X4X!.8X&XZX&X3X2X,XOXOXOXOX,X,XOXoXoXoXoXoXoX,X,X",
"1XOXoXOX_.L.! ~ ~ ~ ` Q Q _ ! (.<XoXOXOX X X X XoX XOX,X,X,X*X&X,X,X,X,X,X,X,X,X3X&X&X&XvX3X&X>X>XoXoXoXoXoXoXoXoXoXoXoXoXoXoXoX",
"OXoXoX1XoXQ.Q._.oXoX>X~._.oXQ.OXoXoXoX|.oXoXoXoXoXOXOX>X>X>X>X,XOXoXoXoX<X<X<X<X_.aX3X>X>X>X&X4X<XoXOXOXOX,X,X,XoXoX,XOX,X,X,X,X",
"oXoXoXOX,XoXoX,X,X,X,X>X4X4X_.,XoX|.|.|.oXoXoX>X,X,X>XoXOXOXOXoXoX|.|.|.oXoXoXoXoX,XaXW.4X_.4X<XoXoXoXoXoXoXoXoXoXoXoX,XOX,X,X,X",
"OX@XOXoXoXOX,XoX>X>X,X_.>X,X_.,XoX|.OXOX,X,X,X,X,X,X,X,XOXOXoX X X X X X X X X X1X@XQ.1XQ.zX|._.oXoXoXoXoXoXoXoXoXoXoXoXOXOX,X,X",
"1X1X1XoX,X1X4X,X,X4XaX,X4X4X>XaX<X@X1X1X1X4X4X4X,X,X,X4X4X1X@XOX@X@X@X@X@X@X@X@X1XQ.xX@XzXI.zX@X1X4X4X4X1X1X1X1X1X4X1X1X1X4X4X1X"
};
