/* XPM */
static char *_71f526b840549409ea60934724a40505lHEiprW47OyqptQ[] = {
/* columns rows colors chars-per-pixel */
"64 64 196 2 ",
"   c #8DA93B",
".  c #91AE3C",
"X  c #B5CD2F",
"o  c #BACB2D",
"O  c #A2C537",
"+  c #ABCA3E",
"@  c #B5CC3C",
"#  c #BCCE3E",
"$  c #B9D93A",
"%  c #B2D33C",
"&  c #C0D41D",
"*  c #C1D329",
"=  c #CBD53E",
"-  c #D5DC37",
";  c #92AE42",
":  c #96B243",
">  c #9AB644",
",  c #9DBA46",
"<  c #9BB649",
"1  c #9EBA4A",
"2  c #97B053",
"3  c #9AB551",
"4  c #9FBB53",
"5  c #A0BD47",
"6  c #A1BE4C",
"7  c #A3BE53",
"8  c #ACBD55",
"9  c #A5BD5F",
"0  c #A2BB62",
"q  c #A6C343",
"w  c #ADCC44",
"e  c #A5C24D",
"r  c #A9C54E",
"t  c #AECD4B",
"y  c #B2CB45",
"u  c #B2C649",
"i  c #B2CF4A",
"p  c #AED145",
"a  c #AED24D",
"s  c #B2D346",
"d  c #B5D946",
"f  c #B4D44C",
"g  c #B8D74E",
"h  c #B6D94D",
"j  c #B9DA4D",
"k  c #A6C252",
"l  c #A9C653",
"z  c #ADCA54",
"x  c #A6C359",
"c  c #A9C55A",
"v  c #ADCA5A",
"b  c #B1CE55",
"n  c #B9CF53",
"m  c #B2CE5B",
"M  c #BDCE5B",
"N  c #AED353",
"B  c #AFD45A",
"V  c #AFD85E",
"C  c #B5D354",
"Z  c #B9D655",
"A  c #B6D955",
"S  c #B9D955",
"D  c #B6D45B",
"F  c #B8D65C",
"G  c #B5D95B",
"H  c #BAD95C",
"J  c #BDE14B",
"K  c #ADC661",
"L  c #ACC861",
"P  c #ABC56C",
"I  c #B5C660",
"U  c #B3CE63",
"Y  c #B2C46A",
"T  c #BEC46A",
"R  c #B5CC6C",
"E  c #BACD6D",
"W  c #B6D362",
"Q  c #B9D562",
"!  c #B6DA63",
"~  c #BCD963",
"^  c #BEDA64",
"/  c #BCD962",
"(  c #B6D26A",
")  c #BBD769",
"_  c #BAD46B",
"`  c #B6D868",
"'  c #BCDA6A",
"]  c #B3C671",
"[  c #BAC575",
"{  c #B6CA72",
"}  c #BACD72",
"|  c #B6C57E",
" . c #BAC57E",
".. c #B7CA7B",
"X. c #BACC7C",
"o. c #B6D174",
"O. c #BBD273",
"+. c #BEDB71",
"@. c #BBD27B",
"#. c #C0D457",
"$. c #CDD450",
"%. c #C2DC5D",
"&. c #C2D15C",
"*. c #D0D85E",
"=. c #C3CE66",
"-. c #C4D761",
";. c #C9D664",
":. c #C0DD63",
">. c #C0D36A",
",. c #C3DE6A",
"<. c #C3CE79",
"1. c #C0DB70",
"2. c #CFDB77",
"3. c #CDD47C",
"4. c #C2D27A",
"5. c #B8C182",
"6. c #BCCE83",
"7. c #BDD484",
"8. c #BFD089",
"9. c #BBC592",
"0. c #BBC992",
"q. c #BED092",
"w. c #CCCC87",
"e. c #C5CE8D",
"r. c #C8CC8F",
"t. c #D7CE83",
"y. c #C3D483",
"u. c #C7D983",
"i. c #C2D28B",
"p. c #C9D589",
"a. c #CCD88E",
"s. c #D3D78D",
"d. c #C2CB93",
"f. c #C5CC9C",
"g. c #C7D796",
"h. c #C5D294",
"j. c #CAD396",
"k. c #C3D897",
"l. c #CCD890",
"z. c #C7D49C",
"x. c #CBD49C",
"c. c #C6DA9F",
"v. c #CBDD9D",
"b. c #D3D693",
"n. c #CFE09C",
"m. c #C0D1A7",
"M. c #CCD5A3",
"N. c #CBD9A6",
"B. c #C5D2AB",
"V. c #CEDAAD",
"C. c #D0D4A2",
"Z. c #D3DCA5",
"A. c #D2D8AC",
"S. c #DADCAE",
"D. c #D3D5B3",
"F. c #D4DCB3",
"G. c #DADAB3",
"H. c #D5DBBB",
"J. c #DDDDB9",
"K. c #D4D2B9",
"L. c #DBE4AC",
"P. c #D5E2B6",
"I. c #DCE3BE",
"U. c #E2EBAC",
"Y. c #D9D6C5",
"T. c #D1DDC3",
"R. c #DBDFC4",
"E. c #D1DFC8",
"W. c #DCDFCC",
"Q. c #DFDED1",
"!. c #E2DFCC",
"~. c #E1DDD1",
"^. c #DCE4C5",
"/. c #DDE4CC",
"(. c #DDE2DC",
"). c #E0E3C3",
"_. c #E1E4C9",
"`. c #EAE5CF",
"'. c #E3EBC6",
"]. c #E0E2D4",
"[. c #E6E9D4",
"{. c #E7E7DB",
"}. c #E3E5DB",
"|. c #E8EADC",
" X c #DCDDE2",
".X c #E8EAE5",
"XX c #E5E3EE",
"oX c #ECEEED",
"OX c #EAE1E2",
"+X c #F2ECE0",
"@X c #EAF1E1",
"#X c #F0F1E9",
"$X c #F1F5E4",
"%X c #F8FDF7",
"&X c #FFFDFF",
"*X c #F2F1F9",
/* pixels */
"D D D D D F D F D H F D F D D D F A Q F G D D D D D F D D D D D Q Z F Z f N D h Q F C F D F F D F D D F D C D F Q A S Z H F Z ) ",
"F F F D D F D D D D D D D F H D D H D D C / W D D D D D D D D F C D H Z W V.} E W Q D F D F F D D F Q F F F D D D D W C z H C W ",
"F F D D D D F C H D D F D D F D F f b X._ h D H F D F F F F F F H D F Q m H.3.OXW Q F F F D F D D D D D D F F F H Q Y  X@Xz S C ",
"D D D D F D H D D D D F D D D F Z v.Q.d.x.b W Z D F F D D D F F f W H F m H.&.r.W D F D F F D D F D D H H D D F w g.{.X H.Q D ) ",
"D F F D H D H D b ^ ^ D D F D F p X.C.@ }.@./ U D / F z l m F D F Q D f W N.g.B.D C Z Z D H D F F F D D D C D D ' F 5.U.Y Q A D ",
"D F F D F l m z 5 D F l l F F D ,.y h..X] R S h D Q D l e z D F Z D F F F p D D D D H H D ^ D H z D F D D F H D m F Q ^.u.t W S ",
"D D D D F 6 l k : 1 l e 5 b ^ D m C O.F H s W Z D F D z z b D F C Q D s H ~ ' s F F H H l W l D 6 l D Q Q F D D D S Q t f A ' f ",
"D D D F Q 1 l k Q l m W k l / F F W A D W W Q D F D F Q Q F D F S W Q F W C D Q D F D D 1 l < l k 1 1 k e 1 l Q Q s F ) W G m Q ",
"Z S G B v f ^ F F F F F F F D D D D D D D F D D F F D D D D D D D D D F D D D Z D F F D z l e 1 v l , 6 l 6 1 D D D D D D D D D ",
"S R Q { XXm D F F F F F F D D D F D D D D F F D F F D D F D D F D D D F D D D D D F F F F Q Q F D / F D / F D F D D D D D D D D ",
"A D <.w.*.f.Q N D D D D D D D D F D D D D D F F D D F F F F F F D D D D D D D D F F F D D D F F C H H C F H F D D D D D D D D D ",
"( s M.s.* J.6.C D D D D D D D D D D D D D D D D D D F F F D D Z D D D D D D D D D D D D D D D D F D C C C C D D D D D D D D D D ",
"g ( b 0.oX8 D S D D D D D D F F D D D F F D D D D D D F F D D D D D D D D D F F D D D F F F F F F D D ^ F D D D D D D D D D D D ",
"D Z D G q _ ^ C D D D D D F F F D D F F F D D D F D D D D F F F F F F D D D D D F D D D D C C D D D F F F F F D D D D D D D D D ",
"C / ! Z W Z C ^ D D D D D D D D D D D D D D D F F D D D D F Q Q W F F D D D D D D D D D F F F H D F D D D D F D D D D D D D D D ",
"Q D A D >.F D C D D D D D D D D D D D D C D D F F F D Z F Q ) _ W W F D D D D D F D D F F D D F D D D F F D C F D D D D D D D D ",
"D Q f D F D F F F D ^ W F Z Q C F C C ^ < m Q Z A S S s H F 8 +Xz.s ! ` h F Z D Z ( f ( D C F C W ^ f Q C j ' D D D D D D F F D ",
"C W Z W F W D D Q t D F D :.D A D F F D > m ^ A W ( Z R D O.|.# } _ C G U D Q F D ) C H Q A U r Z C H A H C t A D D D D D D F F ",
"F F F W Z Q A H A ) C D Q s f ) H D D D l z F H U q H Q C W g.z.&XR C G Q %.Z d A C ` t C S m 7 b H b ) F i (.y.D D D D D D D D ",
"S f F F A W D m D W A s F 9 z z b Q ^ z l z F D x 6 Q F N h i O.@.b ' C H D f W m W D F Z H z 1 U H S D } 9.L. .D D F D D D D D ",
"Q C W D f S ^ H ) w W W f K b 0 6 l m z m z Q ^ O D H D ' G Q t N Q n F F ! C n.K.A.I ,.m A ( C _ z f F R %Xu ^.D D F D D D D D ",
"U D Q / S s R l d.V.w Q _ t % w k . ; 6 D 6 6 l z 0 b Z W N C 1.V C %.n z h w 0.3.=.e.b U S H Z C H Z ) D } { F.D D F D D D D D ",
"S S f D F C I.L.;.].w A Q z m ^ / v l k D b k > D 2 > m 1 l ' f H / m D R.9.x.B._.l./.t Z j A R Z f m h ( h F w D F F D D D D D ",
"D W H Q Q y H.x.b. .j _ C ^ b Q C F ^ D H D F m a l m < U C A D M f ! U w.- G.P ] K c A ) C Q Z C _ Q h D D D / D D D D D D D D ",
"Q A A F F f 8.| E.7.C D F A A Q D D D D D D D D F F D D C C D F W W $ M.).#.M.M.S.D./.b Q S Z D H C D H D D F D F D H D D F C H ",
"D F / Z W E F.D.r C H ' W D F F D D D D D D D D D D D D F F F F A S f R i.{ z.f.j.-.V.w D / R S b D ^ D F l b F Q z r D D D H C ",
"H L Z ^ Y {.& $.T.@.f Z Q S A D D D D D D D D D D D D F F D m z D W ) C Z D S w z.T.w H s F Q A H F F D D 5 b Q D r e ^ Q F F F ",
"Z H Q C W r Y.G.l b S F D D F D D D D D D D D D F D D D D D z l H C D Q F D D C @.q.f W H W W f F D D Q r e Q D m , D ^ e D F D ",
"F A A H ^ A y.y.D H H D D F H Z D D D D D D D D D D D D F D D D Q D A Q D S D H C d ' Z H D W S e D Q Q l l ^ D l v Q k , F D D ",
"Q F F W W A A C ( C A Q _ U D Q D D D D D D D D D D D D D F F Q C C F F D H F C Z +.r D t H g F e l l l D 6 l v z m z k m F D H ",
"D F Z A D / / ( S Q Q f s S H C D D D D D D D D D D D D D D F F Q Q Q D F W Q F S l c 4 v ' Z / v 6 > 1 D > : k F . k m e e Q b ",
"S F F D F W n Z D C D Q Q D D F D D D D D D D D D D D F F F F D Z H A G / C D F F ^ t D A D D W W l l m D v k v Q , D 6 < 6 l / ",
"D F D D F F : Q H q r :.D C D H D F F F F D D H D D D D D D D D D D D D D D D D F D ) D Q Z F F D D D D D D D D F F D F F l r F ",
"D D D F D D 6 W / r e l Q D F D D D D D D F D D D D D D D D D D D D D D D D D D F F s H F f D D D D D D D D D D D D D D H D D Q ",
"D D D F l z 6 k W v 6 1 m m z l H F F D C D H D D D D D D D D D D D D D D D D D / D ) f D A Q Q D D D D D D D D D D D D D F F F ",
"F F D F l e 6 6   7 7 1 > 1 6 m F F F D r z F F D D D D D D D D D D D D D D D D C D ) F _ F W A D D D D D D D D D F F D C D D D ",
"D H D H D z l v 6 l l m b F D F D D Q D l z F F D D D D D D D D D D D D D D D D G Q w F H f F A D D D D D D D D D D F F D D F F ",
"D F D F ^ D m / F D ^ H D C H F F D F F D F ^ D D D D D D D D D D D D D D D D D D O.x.n f h W Q D D D D D D D D F D D D F F D D ",
"D D D D F D D F ^ D D C F F H D D D D D F F D D D D D D D D D D D D D D D D D D t i.).h.@.! W C D D D D D D D D D F D D F F D D ",
"F D H C Z H D C D F D F C F D Q F F F D D D C F D D D D D D D D D D D D D D D D 7.I.o Q.@.N / F D D D D D D D D z F F D F F D H ",
"F D D D F D D F A Q D ' U H g D D D F D D D D F D F F D D D F F D D H C F D D F @.c.m.k.v g C ) D H F D D Q F b e m Q F C D F D ",
"D D F F D D D D Z C S z A C Y @.D F F D F F D D D F C H H D F D F D F D F D F C A D D D D F D D D D F F F F D z 6 z F F D D F F ",
"D F F D z b F D Q Q h Q W | }.a.b D D D F F D F F D C D D D D D F D F F D D H D D f f A Q W D S D F D D F F D m z m F F F D D D ",
"F F D l 6 z Q F D D Q + ^.$X@ d.C F F C F D D D F D H D D H D F D D F z z D F F Q Q W ) D F C S H D D D D F F F Q F F F D D D F ",
"F F D z e z Q D F ^ H D ..i.h.#Xb F F D F F F Q D F D F D z D D D D D e l Q C F Z F D D C H D D D D D F F D D D F F D D D D D F ",
"D F F D b D F C S D b S g m { b b D D D D F Q D D / e m m , F F D F D l z ^ D D Z Z H Z D F F D F D D D D D D D D D D F F D D D ",
"D D F F F F D D W F H A D D H D / F F F C D m e F Q 6 v v e F D F D z m k z Q D W Q Q Q D D D H F F D D D D F F D F F F F F D D ",
"F D D D F D D F S W Z Q ` A D G Q C D F D / D e l z l k v m l , D b l W > : Q D C D l / C H C Q z m F F F F D C D D D D D D F F ",
"f F Z Z D W ) D _ Z Z Q D C D F D F D F H H m 1 r < 3 v 4 D < 2 2 l C b < ; k e 6 l e Q D F D C 6 1 ^ D F D F D F D D D D H F F ",
"( Z D C H U J f f C D F F H F C D Q F D D D m k 7 Q D H w ^ q v 7 , H b k v < 1 l z z F D D D D k D D F D D F D F F D F D D D D ",
"Z D H ) B f v o.j Q Q Z D F H F D H D m F F F D ( z F F Z ( %.b D z Q F D / b l D b D D F D F F W Q b F H D C H D Q F F H D D D ",
"D ) f a ' s P.H.t m Q S D D D D Z D k l D F F H ` H C S Z b D H H ^ m F D C :.D F m F D F F D F F F ^ r C ^ D D r D D D F F F D ",
"F H F C _ X.<.T X.D Z H H D W F H D l z F D C D t H D F ( D W G Z D Q D C Z D F F D F F D H D F D b D e r F F D 1 m Q F D F H D ",
"F C F Q m [.C.`.v.^ A D D D W F F H D F / D D F %.m H A D f s t F D ~ F D H C F F D F H C F F F H z 6 z 6 k b F 6 v ^ Q b D F F ",
"A F S D f W Q O.O.m C Z F Q D C C D D F F C D F m Q f S U V.[ ~.( Q Z Z F F D D F D F D D D H D D F k k < 7 k l k 1 v z l D D D ",
"F F D F O.d W N A W Q S D W F Z F F D D Z D Q D S D S W U !.= t.{ W Z A F Q D F F D F C F z H D F D m 7 4 4 : k v ; 6 e l ^ F F ",
"F D D D H Q l k F H Q r ^ C Z A D D D D D D D D W Z F D f d.2.S.@.Q Z Z F F F D D U Q p.[ W.{ f D F F m b D D z H D b b D D F D ",
"F H D D D / Q 1 ^ m m 1 D Q D H D D D D D D D D F D D W F 6.4.d._ Q Z Z F W F F A S O.*Xy Z.{ ^ F F F D D F F D F D D D D D F F ",
"D F D H m l l 1 e 1 v 1 l m e Q D D D D D D D D F W C D S S D b W D Z D F W F F G Z U ] '.| f F D D D D D F F D D F F F D D D F ",
"D D D F F e . k > > k : : 1 > W D D D D D D D D Z W D G W f W C D D D D F D D Z D Q D C ^.O.g F D D D D D D D D D F F F D D D D ",
"D D D C / D e v D m D z z m z Q D D D D D D D D Z F F Z W A W F D D F F F D D Z F D C R z D ^ D F D D F F D D F F F D D D D D D ",
"F F D F F F ^ D F F D F Q D D D D D D D D D D D F Z D Z F Z Z g Z D F F F D D D D Q A H S ^ D Z D D D D D D D F H F D D D F F D ",
"F D D ^ D b ~ F F F D D D D H ^ D D D D D D D D D Z D F Q Q ( W D F F D D D F D Z U S D A z ^ Q D D D D D D D D F F D D D F F D ",
"D D H D D H C Z D D H D F D D D D D D D D D D D D W A D D f D S D F F D D F F F F Q i S ( F Q C D F F D D D D D D D D D D D D D "
};
