/* XPM */
static char *_ef6ccdcab7a49518fef9c8e251833ca3S5zak6OFAH6Fswo[] = {
/* columns rows colors chars-per-pixel */
"64 64 256 2 ",
"   c #020301",
".  c #0B0100",
"X  c #060904",
"o  c #150503",
"O  c #091400",
"+  c #010816",
"@  c #151405",
"#  c #2F0D08",
"$  c #1C2B0A",
"%  c #322C0D",
"&  c #0B172E",
"*  c #16292E",
"=  c #30362E",
"-  c #351F21",
";  c #501B0A",
":  c #492A0D",
">  c #50332F",
",  c #763D2E",
"<  c #672714",
"1  c #30471D",
"2  c #6D4D2E",
"3  c #536A33",
"4  c #6D773A",
"5  c #59581D",
"6  c #182E4D",
"7  c #2B376D",
"8  c #172B56",
"9  c #5D3A47",
"0  c #334750",
"q  c #1D456D",
"w  c #345072",
"e  c #3E675F",
"r  c #5A714C",
"t  c #6D7052",
"y  c #6F4C6E",
"u  c #556E75",
"i  c #70706D",
"p  c #5F535B",
"a  c #BA3532",
"s  c #8B292D",
"d  c #D03633",
"f  c #E73531",
"g  c #D42C1E",
"h  c #AF4C33",
"j  c #996232",
"k  c #D14437",
"l  c #EB4239",
"z  c #CB632B",
"x  c #B43748",
"c  c #8A3857",
"v  c #CE3B48",
"b  c #EB3A45",
"n  c #904F4E",
"m  c #B24E51",
"M  c #936F50",
"N  c #AD7255",
"B  c #8C706D",
"V  c #B17669",
"C  c #9E506D",
"Z  c #CE4E4E",
"A  c #E94C4F",
"S  c #C87B68",
"D  c #D4716A",
"F  c #DF6869",
"G  c #728432",
"H  c #768F54",
"J  c #789465",
"K  c #728D75",
"L  c #6B9166",
"P  c #928A3B",
"I  c #9BB938",
"U  c #8C9550",
"Y  c #BA865B",
"T  c #AF8F54",
"R  c #9BB848",
"E  c #8DB053",
"W  c #A6B949",
"Q  c #A8BC56",
"!  c #AFAA54",
"~  c #8E9672",
"^  c #B88968",
"/  c #BB9769",
"(  c #AE8D70",
")  c #8FAC6B",
"_  c #B7B978",
"`  c #ADB36B",
"'  c #C68959",
"]  c #CD915B",
"[  c #C8B45B",
"{  c #C78967",
"}  c #C99566",
"|  c #C98875",
" . c #D58778",
".. c #C89575",
"X. c #D59776",
"o. c #D58E66",
"O. c #CDB070",
"+. c #E88C79",
"@. c #9CC34B",
"#. c #A9C849",
"$. c #B3CB4C",
"%. c #B3D34D",
"&. c #B6D94B",
"*. c #ABC957",
"=. c #B3CD5C",
"-. c #B6CB58",
";. c #ADD557",
":. c #B4D454",
">. c #BAD455",
",. c #B4D954",
"<. c #BADA54",
"1. c #B5D45B",
"2. c #BAD45C",
"3. c #B5D95C",
"4. c #BBDA5B",
"5. c #ADD44C",
"6. c #BCE25C",
"7. c #ABC865",
"8. c #B4CD63",
"9. c #B8CB67",
"0. c #AED465",
"q. c #B5D463",
"w. c #BAD463",
"e. c #BBDA63",
"r. c #B4D46A",
"t. c #BBD46A",
"y. c #BBDB6B",
"u. c #B6DA66",
"i. c #ABC676",
"p. c #B8C975",
"a. c #BBD473",
"s. c #B9D778",
"d. c #ACD573",
"f. c #BCE16C",
"g. c #9FC677",
"h. c #C2D85A",
"j. c #C0D84C",
"k. c #C2C968",
"l. c #C3D867",
"z. c #C6CC76",
"x. c #C4D876",
"c. c #D6D176",
"v. c #C7E477",
"b. c #C6E36C",
"n. c #D3D667",
"m. c #A1C53F",
"M. c #37528C",
"N. c #3B6894",
"B. c #4E578F",
"V. c #6E5783",
"C. c #587488",
"Z. c #486796",
"A. c #566A97",
"S. c #57779A",
"D. c #4D6C8C",
"F. c #6D7092",
"G. c #4C5DA3",
"H. c #576AA8",
"J. c #4A74A8",
"K. c #5777A9",
"L. c #4A76B7",
"P. c #5879B7",
"I. c #516CAE",
"U. c #6677A6",
"Y. c #767BA7",
"T. c #667AB8",
"R. c #6D70AD",
"E. c #5979C6",
"W. c #5578D0",
"Q. c #677BC6",
"!. c #697ED1",
"~. c #313A89",
"^. c #8F728E",
"/. c #9578A7",
"(. c #C66A83",
"). c #718B8F",
"_. c #5B83AA",
"`. c #5A84BA",
"'. c #4E88B4",
"]. c #6583AA",
"[. c #6586BA",
"{. c #748CB5",
"}. c #6C93A3",
"|. c #5A84C7",
" X c #5D88CE",
".X c #6787C7",
"XX c #6785D4",
"oX c #7392CA",
"OX c #7BA7D6",
"+X c #7BB6DD",
"@X c #71A4CF",
"#X c #7CB7E5",
"$X c #79ADE5",
"%X c #7290E4",
"&X c #8B8E90",
"*X c #B0908F",
"=X c #93AF89",
"-X c #B7B787",
";X c #B7B291",
":X c #928FAA",
">X c #AD95B2",
",X c #97ADB2",
"<X c #B3ACB2",
"1X c #CA9887",
"2X c #D1938A",
"3X c #EE928D",
"4X c #CDB291",
"5X c #C9B7B7",
"6X c #CFAFB1",
"7X c #F6B0AD",
"8X c #E8A2A7",
"9X c #B8D686",
"0X c #B0C889",
"qX c #B7CEAB",
"wX c #C6D889",
"eX c #C9D28E",
"rX c #C9E886",
"tX c #D5E791",
"yX c #D0CDB4",
"uX c #F2D0B7",
"iX c #D9E4A4",
"pX c #EFEFB0",
"aX c #8DB0D4",
"sX c #ADB1D0",
"dX c #87B9E9",
"fX c #8CB8F1",
"gX c #9CADE2",
"hX c #C9A8C9",
"jX c #D4ACC9",
"kX c #CBB4C7",
"lX c #D6B5C9",
"zX c #D6ADD7",
"xX c #D8B5D7",
"cX c #CDB4D5",
"vX c #E3B7D7",
"bX c #E8B9C7",
"nX c #D8B4E5",
"mX c #CDB1E7",
"MX c #E3BCE3",
"NX c #8FC3DB",
"BX c #87C3E8",
"VX c #94C6F6",
"CX c #8FC4F2",
"ZX c #ACD0FB",
"AX c #BBC1D6",
"SX c #D3C9D1",
"DX c #F4CFCF",
"FX c #FDF5DB",
"GX c #FBE5D3",
"HX c #D1D5ED",
"JX c #F2DAE7",
"KX c #FCEAE7",
"LX c #FCF6EA",
"PX c #FCF7F9",
"IX c #F1EDEF",
"UX c #D9E8E5",
/* pixels */
"d.0.,.&.<.<.1.q.1.3.,.%.%.2.l.w.w.w.=.=.t.t.w.1.2.w.2.:.:.:.<.3.0.;.e.>.-.l.-.w.s.d.d.s.f.b.$.>.$.%.h.#.6.%.5.&.<.-.9.k.z.e.4.<.",
"d.u.,.%.:.:.1.q.u.3.,.,.<.>.2.w.=.t.8.l.*.w.=.e.1.2.w.2.1.1.1.1.0.y.1.-.k.l.z.p.i.9X) H ) E 9.x.x.l.t.w.;.#.,.:.2.l.9.z.Q t.:.<.",
"u.3.:.:.2.w.w.q.1.;.;.,.<.:.=.t.l.t.=.w.w.l.q.=.1.2.e.2.1.4.1.1.q.0.8.rX7.iXiXiXr $   X     % 5 U ` 9Xs.v.v.=.y.x.` eXiXpX7.=.6.",
";.:.2.e.l.t.t.q.1.:.,.,.<.2.w.t.8.t.tXt.x.Q t.l.q.w.w.1.:.1.2.1.3.3.y.7.p.iXt @       X   X   . . @ O $ 4 ` p.a.p.wXiX0XwX9.f.,.",
"%.:.t.z.p.p.p.9.1.4.4.,.:.w.w.8.x.9.x.8.v.t.l.*.w.w.1.*.*.=.2.4.%.%.e.7.wXH @   o . o # o . o o . .   O   O ) wXi.wXeXeX` s.=.3.",
"&.>.p.p.-X_ p.9.W *.5.#.#.1.t.8.7.x.x.v.q.8.8.t.w.1.=.#.#.;.1.4.j.<.=.wX3     @ i - o : *X- o . # # o . o   O ` x.p.9.tXwXr.*.b.",
"j.2.0X;X;X;X-X` Q #.#.#.#.=.w.w.t.t.*.y.q.b.=.=.1.2.1.*.*.=.1.2.$.e.a.) O $ @ o *X*X; o 4XM o # ;X2 B B . X X U x.1.4.#.1.*.y.y.",
">.9.;X5XyX5X;X` _ 8.$.5.#.*.1.w.q.w.w.q.1.1.2.2.1.2.4.1.1.2.w.2.e.=.wX1 $ = . > *X( ^ j / ( # 2 / ( 2 i o     G l.,.&.<.4.e.w.q.",
"l.` 5XcXkXlX5X4X-Xz.2.:.4.1.;.1.w.w.1.1.1.1.2.<.2.:.:.1.:.1.2.1.w.p.` $ = @ o p n N { X.] Y T / / / 1XV - . X ` >.&.&.&.%.1.q.t.",
"l._ kXnXcXxXkX5X;XeXw.<.4.1.:.1.2.2.1.1.1.:.<.<.4.<.2.2.2.2.2.2.t.x.) % =   - B ^ } ' ] ' ] } } } T M *X2 o 5 x.>.&.&.&.:.1.w.w.",
"z.-XkXnXzXxXlXlX5X-Xt.4.:.:.3.1.1.1.1.:.:.:.:.:.$.:.:.:.e.2.=.2.-.v.G O   o ( 1X..X.] ] ] } ' Y } < # ( M 2 ! x.2.:.1.1.q.q.w.e.",
"z.-XcXnXzXxXxXlX5X;X9.4.:.:.e.1.1.1.1.:.:.:.:.:.:.4.2.1.t.w.8.w.w.x.G X o > 1XV N Y o.] ' } ....| ; # N ^ T ` 9.w.1.u.u.r.r.w.l.",
"z.-XcXnXzXlXxXxXlX;Xp.h.>.2.e.1.1.1.1.:.:.:.:.:.2.2.w.w.w.8.9.t.8.s.) . o V *X; # 2 V ..| |  .| | n N ^ Y M ! x.w.q.r.r.r.w.2.h.",
"z.-XkXnXjXlXxXzXcX5X_ h.>.2.w.q.1.1.1.1.1.1.1.1.1.=.w.t.9.t.x.s.r.a.` @ # 1X1Xn # 2 ^ X...{ | S | X.X.^ ^ j ! l.2.1.u.u.r.w.2.h.",
"z.-XkXxX6X6XxXzXnX5X_ -.2.2.1.w.w.1.1.:.1.1.1.w.l.8.l.x.Q 7.p.7.v.7.p.U M ..{ { N N ..{ { ' X.X.{ { S V ..M ! l.>.,.;.;.1.2.>.h.",
"z._ 5XlX6XlXxXzXnXkX-X9.l.2.=.t.u.q.1.:.:.q.a.s.9X` 0X-XJ H J r ) d.x.! T ' { S { Y } Y } { o.' ' N o.{ ..j P c.>.,.%.,.:.2.2.h.",
"z._ 5XxXlXjXxXxXzXxX*XwXw.l.=.a.r.u.%.<.R s.0X&X&XC.C.U.S.S.S.).e ) rX-.P } } N { V / T N | Y N N N X.N ^ j j c.>.<.%.%.4.1.2.l.",
"z._ ;XkXcXxXlXxXxXlX*X~ x.w.q.r.8.v.;.y.U 3 = C.U.T..XXXE.XX.XK.S.K 0XtX5 : X.X.{ { X.} V N M N { { N Y 1X2 % eXw.<.%.,.e.q.2.l.",
"w.p.-X5XkXxXhXxXjXSX<Xt 9X7.u.3.1.7.9XJ ,X,XD.w [.`.P.`.P.P.T.[.[.C.).yXM o N { { S { { | 1X| | M j N ..1X# % 4Xp.w.1.1.w.1.>.h.",
">.t._ 4XlXxXhXxXhXSX<Xi =X` *.#.q.7.) ,XaXZXaXM.`.'.`..XP.H.H.K.P.K.).).K . : / | S h , , n s < ; M ..1X> p 6X5Xp.p.q.1.w.1.>.h.",
"h.-.Q ` yXlXzXxXlXlXsXF.&X) 7.@.7.) &XC.w [.CXN.`.|.P.Z.Z.A.U.T.E..X[.A.C.+ . : ( 1X .N m n m n N 1X.., *XDXlXSX-Xp.a.q.w.2.<.j.",
"<.:.w.` ;X*XhXzXjXhXmXY.F.i g.d.) =Xu w {.q ZXZ.P.L.M.7 7 w B.T.Q.P..XoXZ.6 X . % t ^ X.X.S S | 1XM , 6XvXjXSX<X;X0Xa.r.w.2.<.j.",
":.1.l.9.` *X6XzXhXhXmX/.F.C.~ qXK ,X0 + + 6 sXU.H.B.7 7 7 8 7 M.Q.T..XZ.q 8 &     % 2 M { S S | n - 6XbXjXhXkXSX;X0Xa.r.t.w.<.h.",
"u.;.<.l.z.4X5XjXhXhX/.R.R.{.u ,XC.,X6 + + & sXY.A.H.B.7 7 7 7 ~.G.T.K.q aXZX].C.JXGX4XY S o. .| *X6XDX6XvXMXSX5X-Xp.a.r.t.w.2.h.",
"r.y.#.w.z.` 5XkX<X>X/.R.R.H.U.A.S.aXC.+ + & gXB.R.A.B.B.7 B.M.G.G.K.D.aXgXaXgXsXPX8Xo.N +.+. .2X6XvXjXjXvXxXy i eXp.w.w.*.l.e.2.",
"s.*.b.2.W ` M *X>X:XY.Y.U.H.T.T.[.K.aXD.7 B.oXR.8 U.Y.H.H.G.H.H.T.H.}.,X* 6 @X:XC Z h o.+. .V 8XvXMXjXjXjX6X> t wXQ #.e.w.t.=.l.",
"7.r.=.-.l.pX` 2 i i i F.C.D.H.I.P..XZ.@XaXOXQ.T.8 q T.I.P.T.{.A.M.R.,X  & sXM.>Xx b d Z N n *XbXzXzXzXvXvXDX;XeXz.W #.4.w.q.=.x.",
"a.v.*.$.>.W tXiXt t t i i u U.T.H.I.oXZ.Z.Z.K..XZ.8 Q.!.Q.H.w 6 H.{.0     * w >Xv b Z h n B bXvXnXzXxXjXjX6XyX` ` #.%.%.*.8.9.a.",
"w.*.1.1.b.2.a.wXeX-XU 4 3 3 u u U.Z.A.U.].].A.U.U.M.T.I.Q.7 & w P.T.+ +   + S.sXx v m C n 6XvXzXnXzXxXlXlXbX4X/ ` $.>.#.#.q.t.t.",
"#.2.b.1.#.v.8.9.i.s.s.a.d.i.=XK ).sX6 w u p <X:XF.Y.A.A.B.7 A.].J.OXB.& + 0 gXF.C C C C /.jXhXvXzXxXjXjXlXbXp ( z.W $.#.*.q.t.t.",
"<.<.#.b.w.=.8.y.w.e.:.1.1.r.9X0XK =X).0 > > 6X> y lXp p :XU.T.XXL.'.@XaXsXsXaXB.V.V.F.F.hXjXjXvXzXzXjXlXbX6XB / k.W $.#.*.*.8.w.",
"<.%.<.$.e.:.w.=.1.:.:.4.1.:.y.r.9X~ ~ 5Xi p p *XB B - B i F.Q.I._.Z.J.H.Y.U.I.I.T.Y.B.F.:X6XxXzXzXzXbX6X6XB 2X( ! ! 2.#.R R =.t.",
"q.q.:.<.<.5.#.*.x.R *.x.1.1.y.8.w.t.` ~ :XAXHXHXSX5X( B ^.lXhX^.).C.U.R.R.oXP.L.T.B.^.^.B >XxXcXmXhXbX7XN 1X . .^ ` w.;.6.#.=.z.",
"r.u.:.<.&.%.#.8.t.Q Q *.1.q.q.=.4.1.9X=X).aXZXsXSXSXSXDXSXlXkXSX:Xw C.Y.B.H.|.E.G.Y.^.^.^.*XhXcXcXvX8XN ^ {  . .^ / Q 4.,.:.9.z.",
"r.q.:.%.%.#.W *.8.8.W R #.*.#.*.3.d.0X).S.[..XaXgXAXSXHXHXAXAXHXHX{.{.@X{.K.J.J.Z.A.V.^./.>XMXxXjX8Xm D X.X.| 2X../ ! h.%.4.w.x.",
"u.e.:.%.$.#.R W R *.#.I I @.#.*.s.0X=XC._.`.J.dXOXaXaXaXaXaXaXaXgXgXNX).u D.S.Z.K.B.V.y y /./.>X8Xc a Z 3X^ | { ../ T [ h.e.=.y.",
":.3.:.:.1.=.*.8.R #.5.5.#.1.s.d.0XK }.U.P.P.'.#XdXdX#X+X+XoX[.oXT.U.}.K &XPXPX,X).:X/./.^.:X>XDX3Xx A v S ..1X..{ } ' T c.e.;.f.",
":.1.:.:.e.w.q.t.e.;.,.6.u.s.9X=X).C.K.Q..XK.J.aXCXBX#X#XdX XP.E.K.U.,XSXuXKXDXSXPXPXPXPXJX5XPXGXZ v b d N / T / ' ] ] T c.9.:.f.",
":.<.:.:.2.q.8.q.e.,.5.;.d.) J K C.].P.T.oXK.S.NXNX#X+X@XdX@XE.I.[.S.C.:XDXGXyXLXIXUXIXPX7X1XKXD d d b v uX4X( / ' ] o.' [ k.w.4.",
":.<.:.:.2.q.1.w.:.6.,.0.9XJ u ].].P.P.P.G.A.{.aXaX+X#X#XVXoXP.P._._.].C.<XIXLXLXIXPXIXLXV D 3Xd f A d F KXFX4X^ } ] o.o.T ` l.1.",
"4.:.:.<.2.2.1.4.$.6.*.s.0Xu ].P.[.I.Q.Q.P.T.G.OXVX@X+X$XfXfXU.D.P.J.|.`.S.).,XSXPXIXPXDXm k k l f f d 7XLXFXuXT } o.o.} T P Q l.",
":.<.<.<.2.2.1.:.:.:.0.9X=Xu oXQ.XX|.E.P.Q.XXP.J.oXdXdXVXfXOXS.D.P.L.L.|..XH.F.sXPXKXDX3Xa k f f f f v DXLXLX4XT / } ' Y T T 9.l.",
"1.2.2.:.$.:.:.:.6.:.q.9X=Xu T.E.L.|. X|.W.W.XXL.[.VXdXfX$X|._.].J.E.Q.E.|..XR.^.(.F v a Z l f l f d F JXKXyX( / T / T T T ! k.2.",
"1.e.<.#.#.$.2.2.2.:.q.s.qX).A.oX|.|.L. XW.W.|.L._.aXdX$X XL.P.P..XP.Q.XXW..XY.C x d f A d g l f l d m DXDXyX( / O.O.` ! ! k.l.l.",
"w.e.2.#.#.$.2.2.1.:.1.0.wX=Xu C.[.`.|. XL.E.J.J.D.{.VXdXE.E.|.P.[.K.T.Q.L.`./.y v f f f b b b g d Z m DXGXLXuX4XeXz.z.k.9.l.l.l.",
"1.e.2.:.$.2.e.w.l.:.e.=.7.i.) r u S.K.P.J.L.J.`.w K.ZXoXP.E. X|.J..XT.P.`.U.i n Z l d A Z v Z F k a x 3XKXFXpX_ z.9.w.e.2.1.-.h.",
"1.2.2.>.2.2.w.w.e.$.4.<.3.f.rX` J K u Z.oX`.J.Z.q A.gXH.K.K.L.J.P.[.L.XXoXV.c Z m m 7X7Xm 2XJXKX7XZ v F GXFXpX_ a.8.e.<.,.3.:.l.",
"w.1.:.>.<.2.2.w.2.2.%.%.6.#.3.t.eX=XF.U.fXM.w q [.OXaX7 S.K.`.`.J.[.T.R.V.c m x  .GXKX6X2XPXPXIXKX3Xv a D FXuXp.x.q.4.%.;.6.:.l.",
"2.4.:.4.%.4.:.1.2.2.4.%.%.<.4.8.eX).A.oXfXM._._.fXZXoXM.N.w K.OXoXB.y c x Z x 8XKXLXKXKXPXPXIXSXKXbXZ A d Z ' O.a.r.8.t.l.2.3.u.",
":.$.:.:.2.1.w.w.y.=.:.h.4.$.1.s.) u K..XfXdXNXNX+XBXVXdX_.q w VXOXU.y C v a D DXLXLXIXIXPXJXyXLXPX7Xx b A d h O.z.r.q.w.l.2.1.;.",
"h.4.h.=.t.7.p.i.7.a.4.:.1.y.i.=X).K.P.XXfXVXNX+XCX$XfXVXdX@XJ.dX@XJ.V.C V S N FXGXIXIXPXSXyXFXFXuXN d l g g z c.w.1.1.>.>.>.,.,.",
":.%.2.=.x.wXtXtX7.x.e.#.r.9X=Xu S..XP.oXfX#XBX+XBX#XfXfXCXZXaXBX@XJ.Y.y *XDXB LXIXIXPXHXJXLXFXFXV h k f f g z [ #.;.4.>.$.h.<.3.",
"<.<.%.-.7.p.p.9Xx.=.$.u.9X=X).K.P.`.J.`.VX+XBXBXBXBXVXfX#X+XBXNX_.K.T.Y.:XsX<XPXPXIXSXUXPXIXLXGXGXF l f l k z c.W *.y.2.-.l.2.e.",
":.4.:.l.t.tXtXtXv.*.,.f.=X).P.!..XK.'.J.OXCXdX+XBXBXdX$XCXdXBX@XS.{.I.Q.Q.R.sXPXIXSXIXPXIXPXPXLX7Xd f f f k z [ Q @.u.q.=.l.=.y.",
":.:.=.-.=.=.=.-.h.%.6.7.L S.XX!.`._._.J..XfXdXCX+XBXCX#XCXVXOX[.T.oXE.W.!.!.T.HXSXPXLXKXLXKXKXKXZ A f g l k j c.Q R *.*.=.l.8.x.",
",.:.e.w.x.9.w.-.>.$.u.) L S.XXW.P.`.P..XL.|.+XCXVXfXCXfXdXdXP.E.T.T.XXXXW.!.H.Y.PXKXKXGXDXGXDX3XZ d b b f h j ! *.E @.R -.l.=.x.",
";.3.q.r.a.z.-.W l.8.9XJ ).].P.E.E.!.W.W..XK.K.oXOXdXaX@X{.P.E.E.Q.I.`.'.`.`.Y.F.SXPXGX( M N m x d Z b d k h j [ w.;.5.%.$.$.>.l.",
"5.1.r.a.a.a.-.W =.p.-XK C.].[.P.Q.E.XXXXS.u u e u D.C.C.u u H.P.P.`.`.'.'._.Y.F.JXPXLXGXGX3Xm Z Z k d A h ; T z.w.;.,.&.>.>.>.h.",
",.:.q.a.9.*.W W Q i.K 0 Z.I.P.Q.Q.T.T.C.K ) d.E J J J J J ) K e K.|.'.'..XP.T.B.Y.&X~ pX4X, s s Z D +.F 3XN 5 tXr.;.:.<.>.>.2.e.",
"<.,.q.t.8.#.I I R ` r & {.H.K.K.H.U.Y.K 9Xy.6.;.s.s.s.d.y.rX) 1 _.P.L.L.P.I.U.7 + O 4 p.eX2 # < 2X .3X2XV ..4 U s.0.1.2.>.2.w.t.",
",.,.1.u.1.5.#.%.w.wX~ 0 w & B.{.w w u J a.5.%.4.8.a.a.8.;.v.7.r C.B.I.XXI.M.B.* = ) rX*.q.z.5 o : N N N 2 % X % s.r.w.e.w.w.t.x.",
",.:.1.w.4.:.%.,.;.a.eX0Xi * u i * * H i.v.%.<.:.8.8.q.1.*.3.r.` i & 6 S.w & 0 0 ) s.*.u.;.*.x.G O . # o o o $ U a.r.1.2.2.w.t.a.",
"1.e.q.q.q.q.1.1.b.*.7.s.i.` p.) ) E 7.y.:.#.e.t.x.t.=.4.4.3.q.r.p.3 3 J t 1 H s.9.x.x.7.a.r.7.rXs.G 5 5 U U i.s.q.1.>.>.>.2.q.t.",
"e.e.y.q.r.y.y.u.q.u.f.1.v.:.l.l.a.rXe.%.6.l.w.x.t.t.2.2.4.4.q.l.x.l.rXs.9XrXv.e.l.=.z.x.a.s.r.0.0.rXrXrXwXwXrXr.u.4.4.h.h.h.t.y."
};
