/* XPM */
static char *b6d35e2214c94f3ce6718e03a09a8bd7jE2xH8tdIKRVEBgE[] = {
/* columns rows colors chars-per-pixel */
"64 64 256 2 ",
"   c #090700",
".  c #150200",
"X  c #1C0100",
"o  c #130C00",
"O  c #1C0B01",
"+  c #17060C",
"@  c #181501",
"#  c #191013",
"$  c #230200",
"%  c #2B0200",
"&  c #240C03",
"*  c #3B0101",
"=  c #370802",
"-  c #281601",
";  c #341605",
":  c #2A1218",
">  c #272500",
",  c #2C3406",
"<  c #353904",
"1  c #322600",
"2  c #2F1F23",
"3  c #4F0F01",
"4  c #6D1405",
"5  c #502C0A",
"6  c #732F0B",
"7  c #543D31",
"8  c #344205",
"9  c #3A5D35",
"0  c #544E0F",
"q  c #704A10",
"w  c #704B29",
"e  c #726E2E",
"r  c #5F5E22",
"t  c #6F7146",
"y  c #625243",
"u  c #4E3F46",
"i  c #8D1909",
"p  c #B81508",
"a  c #A4190C",
"s  c #872904",
"d  c #93360D",
"f  c #B8250A",
"g  c #AB2617",
"h  c #BB2719",
"j  c #AC2F11",
"k  c #B33229",
"l  c #AD262A",
"z  c #D90C06",
"x  c #C71909",
"c  c #D81A16",
"v  c #CE1710",
"b  c #E71916",
"n  c #FA1818",
"m  c #EE110B",
"M  c #C82818",
"N  c #D4241A",
"B  c #C42E0C",
"V  c #EC2519",
"C  c #D21A23",
"Z  c #F01C23",
"A  c #D82726",
"S  c #CF312F",
"D  c #E62725",
"F  c #F42827",
"G  c #E93739",
"H  c #FB3939",
"J  c #F13031",
"K  c #934E11",
"L  c #AD5116",
"P  c #986E18",
"I  c #AF691A",
"U  c #8D512D",
"Y  c #B3522E",
"T  c #926B31",
"R  c #BA6925",
"E  c #B97529",
"W  c #AD7232",
"Q  c #C55519",
"!  c #CA4C1A",
"~  c #CC522E",
"^  c #EA443D",
"/  c #C76827",
"(  c #CA772C",
")  c #CB7A38",
"_  c #D67637",
"`  c #D16D2F",
"'  c #E27230",
"]  c #D93B44",
"[  c #FA3944",
"{  c #EB3A46",
"}  c #956C49",
"|  c #B67746",
" . c #AE714C",
".. c #AA5D54",
"X. c #D85445",
"o. c #D7504D",
"O. c #FB4547",
"+. c #EF4F4F",
"@. c #CF724E",
"#. c #EB6C58",
"$. c #CF736A",
"%. c #ED716D",
"&. c #7A8D3C",
"*. c #718450",
"=. c #928D31",
"-. c #A9882C",
";. c #B49338",
":. c #9CB238",
">. c #CA873A",
",. c #D78539",
"<. c #D08F36",
"1. c #E3943D",
"2. c #B5DA39",
"3. c #98934C",
"4. c #B89845",
"5. c #B38852",
"6. c #9EBA43",
"7. c #9DB848",
"8. c #9CAF55",
"9. c #BBA646",
"0. c #A1BD45",
"q. c #A3BE4B",
"w. c #AAB846",
"e. c #A7BC57",
"r. c #B7B351",
"t. c #B7916C",
"y. c #AFB26D",
"u. c #9E996F",
"i. c #D98645",
"p. c #DA9649",
"a. c #D99955",
"s. c #CD884F",
"d. c #E68949",
"f. c #E39446",
"g. c #E39C54",
"h. c #F09450",
"j. c #C5A649",
"k. c #DAA957",
"l. c #C8B955",
"z. c #D1B253",
"x. c #E8A759",
"c. c #F4A65B",
"v. c #EAAF56",
"b. c #CE946D",
"n. c #F39071",
"m. c #DAA476",
"M. c #CFAF6C",
"N. c #E6A866",
"B. c #EEB16A",
"V. c #A5C34B",
"C. c #AAC54D",
"Z. c #A7C648",
"A. c #B6CC4B",
"S. c #B7D54C",
"D. c #AAC553",
"F. c #ADCA54",
"G. c #ADCA5B",
"H. c #ABC758",
"J. c #B2CD54",
"K. c #BCCC54",
"L. c #B2CD5B",
"P. c #BBCD5B",
"I. c #B6C459",
"U. c #ACD354",
"Y. c #AED45B",
"T. c #ADDA5B",
"R. c #A8D657",
"E. c #B5D355",
"W. c #B9D555",
"Q. c #B5D35C",
"!. c #B9D45D",
"~. c #B4D95C",
"^. c #BBD95C",
"/. c #B5D955",
"(. c #ABD04C",
"). c #B5E15B",
"_. c #ADCA65",
"`. c #B4CD63",
"'. c #BACD63",
"]. c #B8CC6A",
"[. c #ADD766",
"{. c #B5D362",
"}. c #BAD562",
"|. c #B5D962",
" X c #BCDA63",
".X c #BBD46B",
"XX c #BDDA6A",
"oX c #B5D66A",
"OX c #B9CA75",
"+X c #BAD675",
"@X c #AECD77",
"#X c #B8E466",
"$X c #B5E270",
"%X c #9ECA54",
"&X c #C5CA5A",
"*X c #C4D65A",
"=X c #C9CA53",
"-X c #C5E256",
";X c #C7CA64",
":X c #D4CB65",
">X c #C3D363",
",X c #C2DA64",
"<X c #C3D46C",
"1X c #C2DB6A",
"2X c #CBD568",
"3X c #C7CA75",
"4X c #C3DB72",
"5X c #C7D777",
"6X c #D4D373",
"7X c #E2C66E",
"8X c #CAE578",
"9X c #CAE46F",
"0X c #FE9989",
"qX c #F79189",
"wX c #D6B28A",
"eX c #FAB598",
"rX c #EFB393",
"tX c #FCAAA4",
"yX c #FCB9A9",
"uX c #ECB7AC",
"iX c #D6A696",
"pX c #BCD086",
"aX c #BED8AB",
"sX c #CFD08C",
"dX c #E7D09B",
"fX c #DAF38B",
"gX c #D4EA8A",
"hX c #E3F690",
"jX c #D4CEB3",
"kX c #E7CAA8",
"lX c #F9C9A8",
"zX c #EAD7A7",
"xX c #FEC9B5",
"cX c #FDD8B8",
"vX c #EDD0B4",
"bX c #FAE8BA",
"nX c #F1E8B2",
"mX c #D7E9A5",
"MX c #FFBAC2",
"NX c #FDD9C8",
"BX c #FDDCD4",
"VX c #F7CDC7",
"CX c #FDE8CA",
"ZX c #FEEBD4",
"AX c #FEEDDB",
"SX c #FDE4D7",
"DX c #FEF3DB",
"FX c #FCF6D5",
"GX c #F1F2CD",
"HX c #FDEAE5",
"JX c #FEF4E3",
"KX c #FEFDE3",
"LX c #FEFBEC",
"PX c #FCF8EA",
"IX c #FBF5F3",
"UX c #DFDEC9",
/* pixels */
"S.*XW.W.E.^.Q.U.E.W.W.E.E.~.|.Q.^.S.(.*XI.1X}.E.2.2.2.^.OXsXsXu.t y u u u 7 e y.pX4XJ.S.-XS.'.].}.Q.Q.Q.Q.!.}.}.XX`.`.1X4X'.].4X",
"S.W.W./.Q.^.~./.^.W.W.W.W.Q.Q.Q.Z.,X^.J.G..X}.^.S.S.^.4XOX*.< - - O . + o o     r e.1XS.:.-X1X.XQ.Q.Q.^.^.^.Q.Q.L.XXL.`.e.<X.X.X",
"W.W.W.Q.!.|.|.!.^.E.E.W.^.E.Q.|. XL.`.].+X].'.L.}.XXOX*., o @ @ & ; X : O o @ @   < _.1X^.Z. X{.^.^.^.^.}.^.{.Q..XH.9X8XfX`..X4X",
"/./.~.~.~.!.}.^.Q.E.W.W.^.Q.!.~.Z.XXgXpXpX_.].4X5XOXt @   o o o 5 q $ % X - -   @   < OX1X^.Q.!.^.^.^.Q.Q.Q.{.}..X}.8X.X8X`.4X.X",
"U.~.~.|.{.Q.Q.Q.E.^.^.E.E.^.^.Q.^.XXpXpXmXsX`.5Xy., o 2 2   @ . U b.6 = $ ; - . :     e +X XQ.~.E.Q.Q.Q.Q.Q.Q.|.P.1X{.8XH.1X`..X",
"T.T.|.|.{.G.G.J.0.F.E.Z.Z.!. XQ.^.H.sXmXpXOX].8.> - : . + & - X P N.T 6 3 X $ ; . : @ o OXG.E./.(.E.^. X X^.^.!.}.P.L.fX4X.XH.4X",
"~.~.|.oX`.H.D.D.6.V.Z.V.Z.U.|.!.E.Q.5XOXe.sXe., - . ; ; 5 $ $ % W >.W  .} 5 = X = : . . e 5XZ.E.Z.(.E.Q.Q.Q.Q.^.}.}.XXq.P.P.4X.X",
"!.|..X.X`.e.q.q.F.F.F.F.F.F.Q. XJ.9XD.].gXy.< o O 5 5 % 5 3 = 3 >.p.a.b.b.t. .5 % % w 5 < e.7.Z.V.V.0.0.0.V.F.Q.}.L.L.XX1XP.L.}.",
"}.L.}..XI.<X<XP.}.Q.#XU. X X}.Q.!.A.,X}.5Xe o O ; T T 6 U Y K E <.<.| |  .U  .m.w 3 wXM.5 3.D.6.D.Z.V.V.V.V.C.F.^.Q.Q.}.}.!.}.>X",
"}.L.>XI.fXI.I.1X}.~.Q.F.!.L.>XP.>XK.*X!.].0   - 5 5.N.a.i.d.i.d.>.E | b.w * 5 m.N.a.s.5.0 3.<X1X XQ.Q.^.^.Q.^. X^.Q.Q.^.}.!.}.>X",
"!.P.<X2X5X<X<X`.Q.~.Q.^.1XI.2X;Xr.r.=XK.3X< o & w  .W p.i.d.d._ ( ( I rX .* K B.x.c.s.m.q r 5XH.Q.E.E.Q.^.Q.Q.Q.^.Q.Q.^.!.!.!.,X",
"!.L.<X8X'.5X4XL.Q.~.E.,X*X:.l.M.9.9.l.&X3X0 o & 5 5.s.i.i.` _ / / >.s.cXcX| B.x.1.<.N.m.; 5 sX`.Q././.Q.^.Q.Q.Q.^.Q.Q.^.!.!.!.,X",
"^.Q.>XI.fXI.L.XX X~.D.P.r.P j.N.N.k.z.:X3Xe   O ; t.s.K ) ( ` ( ) ( p.N.N.N.N.v.f.i.s.6 = 1 ].1XQ.Q.Q./.Q.^.^.^.^.Q.Q.^.!.!.!.,X",
"~.E.^.L.4XP.}..X~.^.!.;Xl.-.p.c.x.x.z.9.;Xy.,   & } 5.3 R >.( ( ,.i.g.B.N.B.x.p.,.i.Y * ; @ e.Y.Q.Q.E.E.E./.Q.Q.^.Q.Q.^.!.!.!.,X",
"~.U.!. XV.XX4XF.Y.^.2X&Xz.x.c.d.,.B.p.-.l.8X=.0 - w rXW >.f.<.1.f.c.,.g.a.x.x.1.,.i.Y * % o e.#X~.^.^.^.^.^.^.^.^.Q.Q.^.!.!.!.,X",
"~.U.Q.D.9XF.L. X~.Q.I.=.;.p.f./ d.B.a.-.l.&X5XgXr 5 wXm.a.c.1.c.h.h.c.i.x.a.<.,.( @...* $ o &.#XU./.Q.Q.Q.^.Q.E.^.Q.Q.^.^.W.^.*X",
"U.Q.^.^.!.!.W./.E.W.W.&X9.-.E R h.d.p.4.9.I.2X6Xe ; b.N.p.f.( ,._ / ` n.N.m.K L / d.U $ &   &.<XL.^.J.^. X XF.1XQ.!.W.W./.W.^.^.",
"~.Q.^.W.W.K.E.E.U.1XE.K.=X;.E E / ( ) 4.j.l.;X6Xe $  .N.) _ / Q R / #.s.U 6 3 6 _ @.w O O o e ;X!.C.1XL.L.4X`.}.Q.!.!.W./.W.^.^.",
"~.Q.Q.!.!.!.^.^.E. XQ.*X:Xj.-.P I R E >.k.z.l.7Xe X q a.g.,./ R L d 6 3 % * 4 R a.U ; o o o 0 I.L. X X}..X'.fX`.{.{.!.!.Q.^.^.^.",
"T.Y.Q.^.}.,X X}.|.F.Q.1XK.l.j.P I R R ) x.v.v.7Xq = 3 Y @./ s 4 4 3 3 3 4 6 L i.@.5 . # @ o < L.V.}.F.L.'.`.fX`.{.}.}.!.Q.^.^.}.",
"T.T.Q.Q.!.'.P.`.XXG.{.XXI.I.&X-.K R / ( f.x.v.N.| | Y ~ _ d.R d 6 4 6 6 W ) ,.i.6 $ : # & . 8 +XXX^.9X.X+XfX+XfX].}.}.!.Q.}.}..X",
"T.T.~.!.}.]..X.XoX8X[.`.}.P.I.l.K L / _ ,.f.x.x.n.#.#.+.~ ' d.i.P K s d @._ Q d % . 2 # X . 8 OX{.Q.`.`.].5Xe.8X].}.}.}.Q.}.}..X",
"R.T.~.}.}.<X5XgX+XgXoX`.XXL.J.:XI L L _ _ ,.f.d.n.^ O.H N B / ) ) ) @.Y ~ Q ! Y 3 * 2 : X . , @X].1XF.XXXX_.+X].{.}.}.!.Q.}.}..X",
"U.~.^.{.'.].5XgX5X+XoXoXQ.F.^.*Xz.P K R ( ( ,._ X.^ [ b V B ! L d L L L Y L M k k 4 * : & O > y..XD. X}.{._.+XG.{.}.!.!.Q.}.}..X",
"~.Q.Q.P.'.].OXOX5X+X].`.{.!.~.W.2Xr.P K L ( I / X.S A D D p j ~ ~ ~ ~ Y k g S +.+.o.l * % O - y.>XE.^.L. X{..XQ.L. XQ.^.C.^. X}.",
"^.^.!.}.<X<X5X5X5X+X].'.|.~.~./.F.}.;Xj.E E I I j g S A N p a i a g g g l ] +.O.O.O.X.i % O O y.2XE.Q.!.}.D.L.^.^.C.V.*X^.^.!. X",
"^.!.!.}.<X5X5XsX<X.X].}.^.^./.U.).T.}.;X&Xl.j.q 6 i l S S k Y U k k a h S +.{ +.H ^ ^ S 4 % & y.1XE.^.J.L.q.F.^.^.V.V.^.^.Q.Q.1X",
"!.!.!.!..X<X5X5X].].}.}.}.^././.T.R.[.|. X,X6Xq * 4 o.tXyX0XiXiXiXn.X.G G [ G { J H F A l * ; 8.'.^.,XC.D.D.}.^.Z.C.W.J.Z.Q.}..X",
"!.!.!.Q.{.}..X.X'.'.}.!.^.^././.~.U.[.[.R.R.8Xr % ..$.0XxXlXkXkXcXbXyXX.D F A c D F F c k 3 $ y.G.E. XD.F.F.}.Q.V.C. XZ.q.}..X}.",
"^.^.^.Q.Q.Q.{.{.Q.Q.Q.^.^.Q././.*XE.Y.R.T.R.8X0 ; b.$.$.rXZXKXKXGXFXCX#.N z c c c c F v g d $ 3.I.0.C.D.L.7.q.F.L.0.J.V.D.{.}.XX",
"^.^.!.~.~.Y.Y.Y.Q.!.Q.Q./.E./.W.K.*X1X|.|.F.<X=.} NXBXBXDXKXDXUXPXAXAXqXM z z n b z c M ~ s.q 3.'.6.q.H.`.7.7.H.}.6.F.q.H.G._.4X",
"Q.Q.!.~.~.~.~.Y.~.!.Q.Q.E.E.~.^.*X*X!.P.}.}.<X3.wXZXSXPXZXjXUXPXPXPXJXiXg x z z c N x B ' B.B.M.;XC.F.H.|.G.G.F.|.7.!.q.q.e.H.4X",
"!.!.Q.}.}.F.V.F.|.D.D.Q. XQ.Q. X#X~.W.K.!.}.].3XnXZXSXuXUXJXPXLXKXFXFXm.h p p p a f f ! ' h.B.B.l.*X*X^.(.#XT.~.Q.Q.!.!.}.L.G.XX",
"Q.Q.Q.}.}.L.F.L.1XF.V.L.}.}.Q.~.R.U.K.*X!.}.].3XzXvXkXHXLXGXLXAXKXnXCX@.S v a i i j L Q ' h.g.v.9.l.*X!.(.T.R.T.Q.^.!.*X>XP.Y.#X",
"^.^.Q.Q.Q.C.0.V.D.q.6.0.D.F.D.F.|. X2X2X&X'.3XsXGXUXJXLXGXPXJXSXCXDXyXS D A g i 6 d ` ' d.' d.g.>.j.:X&X^.E.U.~.Q.^.!.!.>X}.{.XX",
"^.^.Q.J.J.V.:.0.:.6.0.0.6.0.C.F.}.}.P.K.D.e.3XsXnXFXKXJXPXLXAXkXZXNX#.G D x k @.b.U d Q ' ' d.,.>.<.7X:X2X!.Q.!.Q.!.P.!.}.{.{.oX",
"E.W.E.E.W.J.C.J.0.C.J.J.C.J.Q.^.{.[.[.Y.G.`.6XdXbXCXZXZXKXZXuXtXBX#.G J A S @.lXlXM.L L Q _ ` _ ( <.v.z.:X&XP.!.!.^.!.!.}.!.Q.|.",
"J.W.W.W.^.W.E.^.E./.W.^.^. X^.Q.|.oX|.|.oX<XM.m.rXuXJXSXAXNX%.tX%.o.G G qXo.b.cXwXlXs.4 L / ` _ d.f.v.z.l.:X>X!.!.}.^.!.}.^.Q.|.",
"E.^.W.E.^.E.E.W.^.Q.E.!.^.^.Q.P.L.oX{.Y.oX;Xs.Y %.yXVXVXyX#.+.{ G { G qXSX..wXcXlXwX5.3 R R _ _ h.c.x.j.9.;X>X,XL.}.^.Q.^.Q.|. X",
"J.^.^.E.^.!.E.^.^.Q.^.}.Q.L.{.1X}.}.|.Q.XX:Xd.S ^ +.o.+.+.G O.[ [ G %.NXxX} cXlXeXwXM.M.W E i.c.c.B.k.;.-.r.K.}.D.Q.^.Q.Q.L.Q.1X",
"}.Q.Q.!.^.!.^.^.^.L.}.1X`.{.XX'.P.,XC.1X{.:X` D H J +.] G O.H J H G yXFXvXt.cXlXrXb.sXy.W P W ;.k.k.;.-.;.&X>XD.q.F.!.^.!.!.}.}.",
"{.}.}.}.!.^.^.Q.Q.L.`.}.`.'..X}.I.,XJ. X~.l.~ F Z H O.+.O.J F H D +.NXGXGXnXcXrXt.dXdXsXT 4.l.9.4.4.9.9.r.>X!.D.V.F.!.^.!.!.}.}.",
"`..X.XL.L.L.Q.Q.}.}.{.`.]..X5X8XF.^./.Q.~.l.! F [ [ A G [ J H H D #.FXGXGXCXlXb.zXzXsXdXy.l.:X:Xr.r.r.;X>X!.Q.Q.F.Y.!.^.Q.!.}.>X",
"{. X}.D.q.F.^.!.}.Q.H..XhXhX5X`.J.^.~.J.>Xj.B F J J G { J D H V N n.FXnXDXkXiXrXdXsXcXb.3X3X&X*X2X>X>X>X>XQ.Q. XY.~.!.^.Q.!.}.>X",
"}. X^.C.V.J.^.^.L.1X}.G.G._.5XhXP.!.^.P.:X) x D C { +.S S H F F N n.FXFXNXuXxXcXzXzXeXU M.6XP.A.!.!.!.^.^.^.Q.E.Q.Q.~.!.!.Q.}.1X",
"Q.}. XQ.J.Q.^.W.J.L.J.{.1X+X].`.&X*X}.;XB.R B ^ qXVXMX%.o.o.c F v 0XFXCXNXxXlXrXlXm.U 6 M.<XW.W.E.!.!.E.Q.^.^.E.!.Q.~.~.|.!..XXX",
"Q.^.^.^.W.W.W.E.^.E.^.}.{.{..X'.>XP.|.<XN.L X.0XSXHXVXuXCXZXn.v Z +.NXKXNXNXcXb. .Y i s 5.<X^./.~.~.!.E.E.^.^./.Q.Q.Q.~.|.~.|.|.",
"^.Q.E.E.^./.Q.^.^.J.^.}.L.{.XX}.>X!.[.<Xk.K n.ZXDXDXPXLXZXDXVXX.Z v 0XSXBXSXCXcXeXY g s W 6XW.W.Z.F.Q.^.^.!.E.Q.Q.Q.Q.!.|.~.|.|.",
"^. XQ. XL..X`.{..X.X}.{.Q.Q.^.^.K.^.|.4X4. .CXAXLXLXPXJXDXDXBX+.z n N o.0XtX0X%.h a j s U 6X&XK.6.D.!.Q.Q.!.^.Q.Q.Q.L. X XQ. X|.",
"J.J.Q.Q..X{..X.X{.{.{.|.^././.W.!.E.R.+XM.b.DXDXJXLXBXNXJXAX$.k b n b c C h M M f f d 4 q 3X6X*XC.Q.}.!.Q.^.}.Q.^.!.Q.!.!.Q.!.}.",
" X^. XL..XH.`.G.`.{.{.}.^.^./.E.J.Y.[._.wXwXDXLXUXjXUXLXKXZXtX%.Z m m V D D N x f a Y b.M.3Xw.S.E.^.}.Q.Q.}. X^.Q.Q.!.Q.Q.!.!.!.",
"E.J.Q.Q.XXXX8X8X{.{.{.}.^.^./.E.^.Q.%X8.dXbXCXvXjXHXLXLXGXFXAX#.c m n m b D c A ^ eXZXDXkXsX1X(.^.^.Q.F.J.!.}.}.C.L. XQ.Q.}.}. X",
"^.^.J.Q.F.{.'..X.X.X.X|.!.Q.^.^.>XP.`.y.nXCXvXjXLXLXAXDXKXDXNXo.v m V b F J C ^ eXeXrXcXkXsX_.R.~.L.F.V.D.L.Q.!.0.D.1X!.L.}.!. X",
"Q.^.Q.1X.X8X8XfXXX.X.X{.Q.Q.^.!.K.K..X5XnXcXvXJXHXPXPXHXNXDX0Xh V V b b D C h X.Y  .m.bXbXsX[.$X~.F.C.q.q.V.F.L.q.V. XQ.J.}.L. X",
"E.Q.L.Q.L.L.L.L..X.X{.!.!.Q.Q.W.*XS.%XoXnXFXAXIXIXIXHXHXSXqXv n m m b c C ] 0XxXGXbXbXbXdXsX_.[.|.L.D.q.6.0.V.D.V.6.J.F.F. XF. X",
"Q.E. XQ.XXQ..X`.`.{.{.}.^.^.Q./.A.^.#X+XmXFXJXHXIXiX..$.o.v n m m m b A S %.AXCXnXnXbXdXy.sX.X~. X!.F.V.7.6.7.V.D.:.q.q.F. XJ.1X",
"E.^.!.Q.}..XG.7.XX{.L.F.^. XJ.E.K.,XoX_.OXy.FXDXAXNXyXqXo.A b n m F b v X.NXZXbXbXbXkXwXdXsX>XS.E.Q.Q.Q.Q.Q.Q.Q.!.Q.L.L.L.Q.!. X",
"E.Q.Q.^.}..XG.D.{.G.G.H.L.}.Q.,XP.I..X5X8.e 3.kXcXcXtX$.S A Z m Z z b x 0XCXzXGXbXzXwXcXzXM.=X-X^.^.^.^.^.|.}.|.}.}.Q.Q.Q.^. X X",
"^.Q.Q.^.Q.F.q.7.7.7.q.7.7.V.V.}.4X'.5X8.q M.m.@.n.Y i a h N b Z n n b G xXCXFXGXnXwXkXt.wX3X*XA.!.!.^.!.!.|.|.!.!.!.Q.Q.Q.!.}.}.",
" X^.!.^.L.V.7.7.7.7.q.6.6.q.6.J.J.D.2X=.& q | @.n.@.d 4 4 a h x x p f j  .cXvXsXt.5.} 5 T sX&X*X!.Q.Q.Q.!.!.!.!.Q.Q.Q.Q.Q.Q.!.!.",
"!.Q.!. X!.F.F.L.Q.Q.{.G.L.Q.F.^./.-X9XI.e - % w w w 5 & 5 ;.v.z.;.4.4.W 5 5 3 6 @.s.$.m.t.3.;X>X!.!.^.^.}.}.!.!.!.!.!.!.}.}.}.}.",
"Q.Q.Q.^.}.Q.Q..X.X}..X{. X XL.^./.S.Z.L.5X3.0 - ; - 8 &.].1X*XK.^.9X`.OXt O 5 $.$. . .w 5 5 <X,X!.Q.!.!.!.!.Q.Q.Q.!.!.!.^.}.}.}.",
"!.^.^.Q.Q.!.|.Q.Q.{..XL.{..XL.}. XQ.|.XX.X.X6Xr.3.8._.+X+XoX].<X2Xw.|.+X+Xe 1 5 0 > > @ > y.<XJ.Q.Q.!.!.!.!.!.!.!.!.Q.!.^.^.}.}.",
"^. X X!.}. XXX}..XXX1X.X XXX{.1X.XXX.X{.oX}.>X2X4X8X$X[.@X+X+XOX:X2X!.XX+XsXy.r , 8 9 *.aXpX]. X X X X X X X X X X X}. X X X X X"
};
