/* XPM */
static char *c3bb6ca8bd7d47dc8b7384059b8be7f3oRGhP1omIAaLmCDX[] = {
/* columns rows colors chars-per-pixel */
"64 64 256 2 ",
"   c #0A1315",
".  c #201719",
"X  c #17350B",
"o  c #07162E",
"O  c #072336",
"+  c #132D30",
"@  c #2A3635",
"#  c #261C21",
"$  c #314E33",
"%  c #294C1D",
"&  c #4B573A",
"*  c #536D3A",
"=  c #0D184B",
"-  c #152748",
";  c #192757",
":  c #0A345A",
">  c #163B57",
",  c #0E3049",
"<  c #2D3351",
"1  c #0B3867",
"2  c #153967",
"3  c #152E6D",
"4  c #272D69",
"5  c #493351",
"6  c #67344E",
"7  c #633F6D",
"8  c #17434E",
"9  c #395659",
"0  c #2D4F51",
"q  c #3C6559",
"w  c #1A4266",
"e  c #184573",
"r  c #2A4969",
"t  c #39576A",
"y  c #395979",
"u  c #2D5070",
"i  c #3B647B",
"p  c #356A72",
"a  c #4C524F",
"s  c #744551",
"d  c #446645",
"f  c #49675A",
"g  c #54724E",
"h  c #697753",
"j  c #475969",
"k  c #545A66",
"l  c #455A78",
"z  c #52516F",
"x  c #6B5473",
"c  c #496668",
"v  c #56696A",
"b  c #597669",
"n  c #47667A",
"m  c #546A79",
"M  c #587377",
"N  c #4D7675",
"B  c #63676B",
"V  c #6C7374",
"C  c #613536",
"Z  c #81343C",
"A  c #8F5066",
"S  c #8D7C72",
"D  c #AD7575",
"F  c #9A5C5A",
"G  c #CE6A71",
"H  c #C85961",
"J  c #8B3F4A",
"K  c #698A2A",
"L  c #67885A",
"P  c #719250",
"I  c #528775",
"U  c #688464",
"Y  c #799977",
"T  c #6C8D71",
"R  c #668B5A",
"E  c #94B439",
"W  c #A9D03B",
"Q  c #8F8E5C",
"!  c #9BB848",
"~  c #9AA758",
"^  c #9ABA57",
"/  c #8CA94B",
"(  c #A2BE4B",
")  c #A4BD48",
"_  c #A5BC57",
"`  c #A9AD5C",
"'  c #8B8769",
"]  c #94876B",
"[  c #859865",
"{  c #978777",
"}  c #959172",
"|  c #A49279",
" . c #99B968",
".. c #89A975",
"X. c #99B679",
"o. c #91AC70",
"O. c #A6AA6B",
"+. c #A7BA68",
"@. c #A8B778",
"#. c #B3B878",
"$. c #ABAB75",
"%. c #9ECA42",
"&. c #ADCC4C",
"*. c #A8C548",
"=. c #B4CC4B",
"-. c #AAD448",
";. c #B3D34D",
":. c #B7D84B",
">. c #ACCB54",
",. c #ADCB5B",
"<. c #A8C657",
"1. c #B3CD55",
"2. c #B3CD5C",
"3. c #BACD59",
"4. c #AED458",
"5. c #B5D454",
"6. c #BAD555",
"7. c #B5D954",
"8. c #BADA54",
"9. c #B5D45C",
"0. c #BAD45C",
"q. c #B5D95C",
"w. c #BBDA5C",
"e. c #B7E357",
"r. c #9AC272",
"t. c #ABC864",
"y. c #B3CD62",
"u. c #B4CC6C",
"i. c #B9CA67",
"p. c #ACD365",
"a. c #B5D362",
"s. c #BAD463",
"d. c #B5DB63",
"f. c #BCDA63",
"g. c #B6D36B",
"h. c #BBD56A",
"j. c #BDDA6B",
"k. c #B5DA6B",
"l. c #A7C776",
"z. c #B7C975",
"x. c #AFD677",
"c. c #BCD473",
"v. c #BDD973",
"b. c #BBD47B",
"n. c #B7D778",
"m. c #BBE16B",
"M. c #BDE277",
"N. c #C1D85B",
"B. c #C0D254",
"V. c #C4CC6C",
"C. c #C2DB64",
"Z. c #C3DC6C",
"A. c #C3D568",
"S. c #C2DB73",
"D. c #C5D879",
"F. c #C3C977",
"G. c #C7E268",
"H. c #C6E37A",
"J. c #C5E55D",
"K. c #395985",
"L. c #335689",
"P. c #396586",
"I. c #3A7095",
"U. c #465C87",
"Y. c #4D5A91",
"T. c #446383",
"R. c #486789",
"E. c #586B86",
"W. c #4A768C",
"Q. c #587688",
"!. c #496A95",
"~. c #546C99",
"^. c #4C749D",
"/. c #4B7997",
"(. c #537393",
"). c #53749C",
"_. c #547A9C",
"`. c #597897",
"'. c #676887",
"]. c #677997",
"[. c #6F738E",
"{. c #486BA2",
"}. c #4C73A3",
"|. c #4B78A8",
" X c #5375A3",
".X c #557AA3",
"XX c #5274AC",
"oX c #5879A9",
"OX c #5777B2",
"+X c #5473A9",
"@X c #6677A8",
"#X c #987C8B",
"$X c #9B7B96",
"%X c #877A97",
"&X c #A37D99",
"*X c #B57494",
"=X c #997CA4",
"-X c #A67DA5",
";X c #8E5D86",
":X c #58888A",
">X c #568499",
",X c #4C8A97",
"<X c #678595",
"1X c #6F898D",
"2X c #5884A9",
"3X c #4B8AB4",
"4X c #5988B7",
"5X c #5896B8",
"6X c #4F8FA8",
"7X c #6792B1",
"8X c #59A7B5",
"9X c #6EABB3",
"0X c #5591C6",
"qX c #629CC6",
"wX c #58AECB",
"eX c #68B6CA",
"rX c #76B9CA",
"tX c #6BB7D8",
"yX c #74B9D5",
"uX c #6DA8CB",
"iX c #60B9E1",
"pX c #75C2D4",
"aX c #72C4E8",
"sX c #9B8687",
"dX c #9B8697",
"fX c #8F928B",
"gX c #A3888A",
"hX c #A58598",
"jX c #A59193",
"kX c #8FAF89",
"lX c #AFB488",
"zX c #9886A6",
"xX c #8C8DB0",
"cX c #A683A6",
"vX c #A292B0",
"bX c #9AB0A5",
"nX c #A6C982",
"mX c #B8C986",
"MX c #B8D685",
"NX c #B5CD93",
"BX c #BAE686",
"VX c #B8D3A5",
"CX c #99CA99",
"ZX c #C5CA88",
"AX c #C6D887",
"SX c #C9DB95",
"DX c #CBD196",
"FX c #CAE288",
"GX c #D8E898",
"HX c #D4EC90",
"JX c #D4E5A8",
"KX c #87B5CF",
"LX c #9CB3CF",
"PX c #9FC3D3",
"IX c #D4EEE2",
"UX c #C2BE8F",
/* pixels */
"7.7.6.9.0.0.a.4.d.p.d.a.>.s.A.3.A.s.3.6.:.:.:.:.7.d.d.a.a.a.a.d.9.4.8.5.g.ZXmXz.s.8.W W :.;.6.8.w.5.5.7.7.;.9.f.j.y.y.Z.Z.i.i.S.",
"5.5.5.5.9.0.9.4.k.,.p.v.S.i.V.V.i.A.3.C.*.7.;.w.5.q.d.a.9.a.a.9.9.q.7.0.u.AXmXAXy.7.-.:.w.2.u.g.h.a.9.7.5.8.9.9.,.j.y.y._ Z.h.h.",
"0.9.9.5.5.7.5.q.9.a.c.b.z.~ O.F.F.h.t.g.g.S.a.,.5.7.8.7.9.0.a.a.a.d.1.C.u.GXZXSXu.0.9.j.z.O.$.$.z.c.h.6.5.8.8.9.s.t.D.FXHXy.s.Z.",
"f.0.0.8.7.7.7.w.2.D.b.O.Q Q ] $.z.c.GXb.AX+.c.h.0.7.8.7.5.9.s.s.a.s.5.A.u.FXZXSXg.a.a.D.@.' sX{ } @.c.h.0.8.6.6.s.g.FXc.H.2.C.6.",
"h.a.0.8.7.;.5.0.i.D.$.Q ] gXsXS ZXz.AXz.GXMXb.,.s.0.5.&.&.2.s.h.g.9.0.6.g.D.b.b.a.9.g.D.lX{ dXdX{ } $.u.A.6.5.5.y.S.z.FXt.j.1.8.",
"g.a.9.6.5.&.&.2._ O.} ] sXhX$X#X$.c.AXAXz.z.u.h.s.9.1.*.*.>.0.s.0.3.N.6.0.h.g.a.0.5.s.D.$.{ hXhXsX] } #.V.C.0.6.s.y.u.HXD.s.&.J.",
"g.y.0.w.5.*._ t.~ Q { gXhX$X-XsX@.u.y.Z.2.Z.9.2.a.g.y.,.,.2.0.6.0.6.6.8.1.C.9.9.7.;.8.A.~ ] gX$XhXsX{ | #.V.A.0.0.g.c._ y.2.G.8.",
"g.a.a.f.9.<._ #.$.] S hXcXcX-XS @.y.C.6.;.;.6.0.a.g.h.g.a.0.6.6.6.N.=.w.&.G.9.f.7.5.6.s.~ Q gX&XhXdXsX{ } +.i.3.N.1.2.h.S.y.1.w.",
"a.a.a.s.<.g.SXlX{ sXhX&X-X$XcXS +.s.8.;.:.8.;.7.9.9.a.Z.f.&.7.7.;.N.C.0.s.s.a.a.a.w.1.A.F.S { &XhX#X#XjXS $.` 3.6.8.0.a.s.g.s.0.",
"s.a.s.,.HXu.mXlX{ #X&X&XcX&XhX] u.f.8.;.7.8.;.7.6.5.>.&.q.m.q.;.7.6.1.1.s.s.a.k.a.f.0.A.z.Q { hX&X$XdXhXS lXF.A.:.;.5.0.s.g.s.s.",
"0.0.s.S.FXAXDX| sX$X-X-XhXgXgX] u.f.0.0.w.6.7.8.7.8.J.;.4.4.<.m.;.7.6.w.C.s.,.9.9.a.0.s.i.$.{ hX&XhXcXdXsXlXZX2.:.:.7.9.s.g.h.s.",
"3.0.s.H.c.SXDX] hX&X-X-XhXgX{ O.h.0.9.a.s.a.9.q.w.*.5.4.m.t.P ^ <.9.0.2.2.2.9.f.9.0.6.0.V.ZX{ hX&XhXcX=XdX{ ZX2.:.:.7.9.s.g.s.s.",
"0.0.s.2.HXz.lXsXhX&X-X&X&XsX{ @.h.9.9.g.a.a.a.a.a.<.k.n.MXX.g L  .x.n.b.v.j.0.4.0.5.7.5.Z.ZXS dX$X&X-XzXdX' z.A.;.:.6.s.g.g.6.6.",
"3.0.0.2.S.z.lX} gX&X-X&XdXsX{ lXc.9.0.s.9.a.j.a.v.MXMXkXkXT c c U Y ..X.z.b.h.9.f.9.5.5.S.#.V dXhX&XcXzXdX' +.C.7.7.s.g.u.g.6.8.",
"B.N.0.f._ b.mXS gX&X&X-XhXdXV X.c.9.8.8.;.8.f.t.z.X.Y M Q.`.!.y t t 9 f h [ +.H.k.a.q.9.c.[ B zXcX&XcX$XsX' ~ 0.7.6.g.g.u.g.6.:.",
"N.N.6.>.H.t.@.' gX&X&XcXdXdXB [ b.0.8.7.&.a.n.l.L b M `.).}.OXOX!.R.U.l a $ g o.MXc.h.g.MXh k zXcX&XcX#X{ O._ C.7.9.g.g.g.g.8.:.",
"B.B.5.s.g.b.@.' sXhX$XcXvXzX'.B @.g.9.5.^ l.Y f N Q.`.).XXOXOX X_.(.l l m n 9 9 & [ AXMXkXb z [.vX$XgX| ZXAX3.0.5.9.a.a.a.a.9.8.",
"=.:.;.9.g.b.lX' sXhX-X=X=XxX'.v L FXg.p.l.g 8 i i P.!..XOXXX{.^.oX@X`.R.i y y n b d P VXT Q.'.[.$X#XS | $.F.s.2.9.9.0.0.9.0.0.q.",
"0.N.8.9.a.c.#.' sX#XcX=X=XzXm B h o.MXr.L q 7X8X5X6X^.}.XX X.X2X{.}.).R.i P.|.3X9X:XT CXN E.z %XhXjXgX] } #.GXu.a.0.9.9.9.9.9.w.",
"2.s.9.5.0.j.z.} { #XcX-XzXzXV B b Y VXY I 9XrXtXaXtXqX|.}..X2X.XOX|.oX_.P.I.3X0X6X6XI p W.W.z %XdXsXgXS ' $.JXz.g.a.0.5.5.9.6.w.",
"i.h.9.5.5.s.u.O.{ sXcX-XcXdX[.k M :XkXT 9XpXwXiXiXiXtX5XoX.X(.R.|.!..X_.i I.3X0X5X5X8X6XW.T.z [.dX$X#XjXS lXNXSXg.a.9.5.5.0.0.0.",
"c.v.s.9.5.9.V.#.' sXhX$XzXzXdXk E.i :X9X9X8XaXiXiXtXtXqX2X!.R.(.P.P.)._.P.I.4X0X2Xu t :Xi K.l [.zXzXdXsX' DXmXAXg.a.0.9.9.0.0.s.",
"y.y.>.w.w.C.HXGX| S hX$XcXzX%Xz y !.>XrXyXwXtXwXtXyXyXqX6X!.R.R.T.y R.(.W._.4X4XPXj   0 ].W.r '.[.%XV a o.z.h.>.9.6.0.s.s.s.s.s.",
"j.s.9.w.9.2.D.SXUXS gXdXvXdX'.'.U.L.I.eXtXeX9XuX/.9XyXeX5X/.y ; , O - < y `.2X`.LX@   # ].l j ].'.B a h AXh.5.w.7.6.0.s.g.g.h.h.",
"9.9.9.0.a.i.c.z.JX} h B V %X[.'.U.L.3XpXeX6XIXLXo , KXrX6Xw = ; ; - - - , Q.Q.o   . # . <Xl c v k a h mXD.1.;.:.-.8.9.f.,.h.A.h.",
"7.5.9.a.g.c.D.AX#.DX} & a k z '.Y.y 3XeX8X8 j @ . + t rXI., 4 ; ; ; ; ; O t M   + . . + ].m j f & P @.AX2.*.;.-.8.*.*.f.s.s.s.Z.",
":.7.9.9.g.D.AXAXAXz.ZXlXa a B z z u 5XpX8XO   . #   r KXu : ; 4 3 3 = - O c :Xo     O n 7Xm a * ~ t.S.S.,.*.0.6.5.*.W 8.6.9.9.Z.",
":.;.5.9.g.c.D.D.t.D.z.mXNXU a v k 9 6XyXeX8   . # o O rXp , 4 4 3 3 4 - o 9 :Xp 0 0 n 7X7XQ.fXmXZ.f.9.2.<.<.a.0.*.&.5.;.*.5.s.s.",
"7.5.5.9.a.g.h.h.a.,.g.b.b.mX@.[ fXc >X5XKX>X+   o o > uX/., o 4 3 3 ; = - t R.>X<X9X7X>Xi v DXz.) 8.w.,.<.<.h.a.<.>.f.*.*.9.f.0.",
"q.0.0.6.0.0.0.9.0.d.j.a.p.v.FXMXCXT >X2XKXKX<Xm l T.7X7X>Xy o ; ; o = - t E.y i y y t y p T SXy.! >.>.9.2.( <.2.y.! ,.*.>.0.0.f.",
"a.a.0.6.6.6.8.7.4.q.4.4.4.>.>.M.nXb Q.).4XuXKXKXKXKX|.I.>X`.E.> , O t l U.T.U.l E.< < v c Y x.9.t.^ / <.5.E E *.j.! t._ ,.,.>.f.",
"a.a.0.9.6.8.6.6.q.4.4.q.7.7.7.4.x.L Q.`.~.)._./.^.^.^.).`.Q.Q.<XV a x x z z @XY.5 < a k & nXk.d.t.u.<.>.9.&.*.&.0.! g._ _ _ <.j.",
"0.0.9.0.6.&.*.>.a.<.<.a.f.9.5.f.k.X.v ].@X4 z m '.[.].].n E.E.m 5 6 C s 6 s -X7 5 z V a P D.s.5.a.a.a.9.5.7.7.7.7.5.5.0.a.,.t.c.",
"9.9.9.0.w.1.>.y.j.,._ 2.s.s.5.q.p.l.L v <XE.< < k 5 z x vXx 5 s s Z J F F A 6 5 z 1Xa * l.Z.1.C.0.0.0.9.9.5.5.7.;.:.7.8.f.9.y.S.",
"0.0.9.9.9.*.! <.,._ ! ( <.>.>.>.,.x.l.L f <X].E.< < 5 x A J J H H H G D D gXV k M T L X.n.p.a.a.a.0.0.0.0.9.5.5.7.6.7.6.f.s.a.Z.",
"w.w.9.5.>.*.! ! ! ! ( ! ! ) *.>.H.t.n.r.g f <XxXE.z 5 6 6 H G G G G G D S { bX:X1XT r.BXp.p.m.>.0.a.s.a.a.0.0.9.9.9.5.5.w.0.9.f.",
"9.0.9.9.0.1.>.2.( >.9.2.>.>.9.s.V.V.s.j.t.P T <X7X].l k jX#XD D *X;X;X%XV m <Xn I CXMX<.p.d.4.7.9.0.s.s.s.s.s.s.s.s.9.9.w.6.5.w.",
"5.0.0.0.f.0.9.f.9.9.0.0.s.f.s.0.3.A.N.5.q.BXCXI W..X`.<X1XV B [.[.'.@X`.<X>Xy i c VXAX,.j.9.5.q.9.0.0.0.s.s.s.g.g.s.s.9.0.6.5.w.",
"5.0.0.9.0.9.9.9.w.9.9.9.0.s.a.2.G.&.:.:.%.p...I P.P.P.,Xp :X,X/.,X6X5XI.,X>Xy T.a jXDXHXF.y.f.9.0.6.6.0.0.0.s.h.y.h.s.9.0.9.5.w.",
"5.0.0.9.0.0.9.0.9.5.6.w.9.2.a.j.7.-.e.-.e.x.R N _.|.3X3XrX8X8XwXwX8XeXeX,Xp R.R.z B NXDXz.D.2.0.6.6.6.6.6.0.0.s.,.g.g.9.9.5.5.w.",
"w.9.9.0.s.0.0.w.8.7.5.1.j.v._ j.e.-.W -.BX..b `. XOX|.|.qXtXeXeXeXpX8X,X,Xi y T.n 9 Y VXz.s.=.N.5.w.6.5.6.0.6.1.) 2.g.g.9.0.8.7.",
"9.9.0.s.s.s.0.5.5.8.7.f.,.y.FXt.<.d.m.n.NXV E.@X~.@XXXXX0XtXyXeXtXyX9X:XW.R.y P.y t q ..n.s.N.3.0.,.,.6.w.6.&.*.*.2.g.g.a.0.w.q.",
"5.6.0.2.,.9.9.5.;.w.8.s.,.u.GXAXb.mX@.lXfXz ].@X~.oXOX|.3XuXyXuXuXuX7X>X(.!.R.P.P.P.r b MXD.Z.A.D.n.g.h.9.7.8.;.1.3.g.g.a.a.s.d.",
"5.w.0.<.( ,.0.6.7.&.5.s.HXGXMXNXlX..V [.].l ].`._.)..X^.I.2X5XqX0X0X2X/.).oX^.!.P.L.y 0 Y X.[ o.X.nXMXn.,.9.N.6.1.0.s.g.a.a.s.f.",
"6.w.0.<.*.,.0.6.8.N.G.,.u.b.mXJXT m `. X~.R.`.`._.!._._.P.P..X4X5X3X,XW.(.oX+XY.Y.L.Y.u m M M M b T X.nXn.s.6.;.8.6.0.s.a.a.s.d.",
"5.8.f.9.2.a.0.9.6.6.1.h.b.MXNXU M n oXXX}.!././._./._..XR.y !.2X5X3XI././._. XY.Y.Y.Y.~.~.~.2X!.Q.M U ..MXj.1.6.6.6.0.s.s.a.s.d.",
"5.9.s.s.s.s.0.9.5.8.5.h.u.l.X.g :X(._.).}.!.}.}. X X.X.X).P.n (.5X|.^./././.).Y.U.U.j '.`. X4X|.oX].v U X.v.9.N.6.6.0.0.s.a.a.d.",
"8.5.9.a.g.a.9.6.7.7.f.g.SXNXT b E.`.`._.(.K.OXXX)..X X X.XR.y T.7X}.{.|./.`._.!.U.l k m `.oXI.4X{.7Xm d [ n.s.5.6.5.3.0.s.0.0.f.",
"0.f.9.h.2.s.3.6.=.w.2.n.o.kXc n , u oX(.l l +X+X(._.XXXX.X!.U.K.2X.X^.^..X.X).R.l l j E.`.).4XXXOXOXt f * n.>.8.8.&.1.f.9.2.f.q.",
"4.5.9.y.g.g.A.0.C.>.H.P X 9 u R.u y !.U.j l oX X(._.XXXX.X!.U.K.)._..X}.XXoX).R.T.l l l (.).!.{.L.2 O 0 g MXv.9.N.0.0.f.0.0.w.q.",
"e.8.f.2.h.t.i.t.S.u.GXP 0 N i K.R.K.U.K.l l ~. X)..XXXXX.X!.U.K.!..XoXXXXXOX X!.U.l t y R.!.L.{.{.P.y t d ..@.c.y.0.0.5.9.9.q.0.",
"-.-.6.9.S.D.FXFX+.MXX.g b t K.L.L.L.K.K.U.y !..X.X.X X}..X!.T.y P.^.oX|.XXOX X!.U.l y l K.L.!.{.{.I.P.n c + $ SX_ a.w.;.9.w.9.d.",
":.7.1.9.,.c.z.b.MXNX* $ c r e : 1 2 u u U.y R.oX)..X_._._.W.n y P./..X^.}.oX XT.T.l t R.y K.oXP.L.u e K.R.0 f VX .y.G.;.8.w.2.S.",
"7.8.5.Z.h.FXFXGXAXmX..g j 2 3 3 1 1 2 r y y R._.)._._._._.W.n y R.W._.}..XoX^.T.T.t t n n R..Xe : 1 2 : 2 R.M d  .<.w.;.;.w.,.v.",
"9.9.3.2.2.2.2.y.H.l.o.$ t r 3 3 e 2 2 2 y y K.!.)._. X X.X(.T.y R.W._..XoX.X!.T.l l n t n (.u 2 e 1 1 2 2 r 9 $ l.! &.*.*.0.,.c.",
"a.9.Z.s.C.3.0.2.,.b.X.X c w 2 3 : : 2 > u u K.}._..XXXXX.X(.U.l T.R.(._._.!.T.y l m <Xt n `.: w 1 1 1 1 2 r 9 h l.E *.W *.f.a.v.",
"a.s.s.9.0.0.&.E 9.j.x.[ g 0 , r > : w > r r ~. X.X^.XX4X X!.U.y t t n W.(.R.n y j 1XPXLXn n , w w : : w 8 0 g o.n.9.5.;.5.9.h.c.",
"2.9.9.0.0.0.&.*.f.a.u.l...U $ + + 8 + 0 M Q.<Xn T._._.T.oXR.U.E.c 9 <XQ.Q.t n l 9 j 1XIX1X9 , > > w 8 + @ g o.MXg.0.7.7.5.0.h.h.",
"6.5.5.6.9.>.( ! ! ! ^  .l.X.P L d d g Y bX@ $ b 1XQ.q b M m b bXf @ Q.<Xn t n m v 9 + fXIXc < , , 8 8 $ g o.x.p.a.9.5.5.9.0.s.s.",
"8.7.6.6.1.) ! ! ! ! _ ! ^ ^ r.MXBXnXl.HX* * l.SXY % * ..h % L VXVXU b T 0 1Xf $ X T U $ IXkXb 9 $ $ d R r.BXM.9.9.5.5.9.0.a.s.s.",
"7.7.6.w.0.2.,.2.Z.a.y.<.,.,.,.j.<.m.9.d./ b.j.S.P X  .l.o.X ~ v.z.u.l.~ % nXnXl.% ^ H.^ c.n.l.r.X.kXnXMXn.a.>.4.9.6.0.0.s.s.s.s.",
"5.5.9.0.s.s.s.s.a.y.s.s.f.f.2.s.G.%.8.;.S.h.0.0.P K H.p.n.K a.f.C.6.j.,.K M.M.k.>.5.&.G.>.4.m.M.x.n.v.g.a.s.f.G.9.9.9.0.0.s.s.s.",
"s.s.s.a.s.s.0.0.0.0.C.0.s.2.,.s.>.G.6.6.A.A.) H.+.t.g.t.y.y.s.0.6.*.Z.S.t.t.t.k.2.G.0.=.9.9.j.<.w.9.1.1.3.s.9.1.0.0.9.9.9.0.s.s.",
"h.j.h.g.s.C.C.0.C.0.0.0.Z.S.g.Z.Z.f.0.G.i.A.S.s.b.b.v.H.h.g.s.C.C.C.A.g.c.H.v.g.Z.3.0.N.C.f.h.G.8.:.w.G.C.s.s.Z.C.C.f.f.f.f.j.j."
};
