/* XPM */
static char *_89e2732c1bc4d99d556cc54aa0ef6eaplTqo5ovYhqyDyBW[] = {
/* columns rows colors chars-per-pixel */
"64 64 141 2 ",
"   c #2E3E1E",
".  c #303F1E",
"X  c #2F3E21",
"o  c #303F20",
"O  c #373F2A",
"+  c #3A3F2B",
"@  c #2D401D",
"#  c #32421F",
"$  c #2F4020",
"%  c #334221",
"&  c #364B22",
"*  c #3A4C26",
"=  c #374128",
"-  c #3A422A",
";  c #3C4D28",
":  c #3E5026",
">  c #3E5028",
",  c #404D2F",
"<  c #405326",
"1  c #40522A",
"2  c #424F31",
"3  c #4A4F3B",
"4  c #435133",
"5  c #485333",
"6  c #4C513D",
"7  c #4D662C",
"8  c #4E692C",
"9  c #516B2D",
"0  c #556733",
"q  c #556A33",
"w  c #586B35",
"e  c #576939",
"r  c #596B39",
"t  c #667B2F",
"y  c #697E2E",
"u  c #667730",
"i  c #667B31",
"p  c #697E31",
"a  c #6E7D3B",
"s  c #707D37",
"d  c #717F3C",
"f  c #904F7A",
"g  c #94537D",
"h  c #99597C",
"j  c #6A8D27",
"k  c #67802D",
"l  c #6A812E",
"z  c #678A2B",
"x  c #6B8D2C",
"c  c #6E9427",
"v  c #6E912C",
"b  c #70932B",
"n  c #6B8131",
"m  c #6F8932",
"M  c #728D33",
"N  c #748E38",
"B  c #769037",
"V  c #769139",
"C  c #789239",
"Z  c #974F81",
"A  c #9D4F86",
"S  c #9F4F8C",
"D  c #975283",
"F  c #9B5284",
"G  c #9D5887",
"H  c #9D5389",
"J  c #A14F8D",
"K  c #A1528D",
"L  c #A25391",
"P  c #AC5EBB",
"I  c #AE65BA",
"U  c #B162BF",
"Y  c #B05EC0",
"T  c #B464C3",
"R  c #B361C5",
"E  c #B262C5",
"W  c #B666C5",
"Q  c #B565C6",
"!  c #B664C6",
"~  c #B767C6",
"^  c #B363C3",
"/  c #B565C8",
"(  c #B863CB",
")  c #BB64CD",
"_  c #BB64CF",
"`  c #BC67CF",
"'  c #B962CB",
"]  c #BB62D0",
"[  c #BB63D1",
"{  c #BE65D1",
"}  c #BD64D2",
"|  c #BE65D3",
" . c #BD63D4",
".. c #BC61D6",
"X. c #BC64D2",
"o. c #C374D0",
"O. c #C475D1",
"+. c #C474D3",
"@. c #C376D4",
"#. c #C477D5",
"$. c #C676D5",
"%. c #C575D6",
"&. c #C477D7",
"*. c #C476D3",
"=. c #C378D5",
"-. c #C579D4",
";. c #C578D6",
":. c #C479D6",
">. c #C77BD6",
",. c #C679D5",
"<. c #C97AD5",
"1. c #C97DD7",
"2. c #C97DD7",
"3. c #CE77DF",
"4. c #C77AD8",
"5. c #C878D9",
"6. c #C878DB",
"7. c #C97DD8",
"8. c #CB79DF",
"9. c #CF79DE",
"0. c #CA79DA",
"q. c #D07ADF",
"w. c #CF78E3",
"e. c #CF7AE2",
"r. c #CF7CE4",
"t. c #CE79E0",
"y. c #D17AE3",
"u. c #D07BE3",
"i. c #D079E4",
"p. c #D07AE5",
"a. c #D17AE5",
"s. c #D17BE6",
"d. c #D27BE6",
"f. c #D37CE5",
"g. c #D27DE5",
"h. c #D37CE7",
"j. c #D37EE6",
"k. c #D47FE7",
"l. c #D27CE5",
"z. c #D27AE8",
"x. c #D47DE8",
/* pixels */
"9 9 9 7 % X o % * * * ; 8 9 9 9 9 9 9 9 n n n n v v b v 9 8 9 9 9 9 9 7 % X o % * * * * * * * * * * * * % o X % 7 9 8 9 n n n p ",
"9 9 9 7 % X o % * * * ; 8 9 9 9 9 9 8 9 n n n n v v b v 9 8 9 9 9 9 9 7 % X o % * * * * * * * * * * * * % o X % 7 9 8 9 n n n n ",
"9 8 9 7 %   o % * * * ; 8 9 9 9 9 9 9 9 p n p n v v b v 9 8 9 9 9 9 9 7 % X o % * * * * * * * * * * * * % o X % 8 9 9 9 p n n n ",
"9 9 9 7 % o o % * * * * 7 8 8 8 8 8 8 9 p n n n v b b v 9 8 9 9 9 9 9 7 %   o # ; > ; ; ; ; ; ; : : : ; % %   % 7 8 7 9 p n n n ",
"n p n u % X   o % % % % * ; ; ; ; * * > x v b v v v b v 9 8 9 9 9 9 9 7 % o X % u p u p t y t i x x x z & X o o % % % & i n n n ",
"n n n i % X o o o o o % * * * * * * * : x b v v v v b v 9 8 9 9 9 9 9 7 % o X & p n n n n n n n v b b x & o % %   o X % u n p n ",
"n n n t % X o o     X o * * * * * * * ; x v v b b b b v 9 9 9 9 9 8 9 7 % X X # u n p n l l l l v v v x #       o % o & p n n n ",
"p i p u % X o o % % % % * ; ; ; ; ; * : z v v v x x x z 9 7 7 7 9 9 9 9 & % % & i n n n a a a d N V V M - O - = o o X % u p i p ",
"; ; > ; % o   % 7 8 7 7 8 7 8 8 8 8 8 8 9 9 9 9 & & & % % % % & z v v x i u i u n n y a I W T W <.1.7.;.E ^ E P =   X % ; > ; ; ",
"* * * * # o   # 8 9 9 9 9 9 9 9 9 9 9 9 8 8 9 7 % X X X X o X & x b v v l n n n n n l a W ..[ | d.d.r.d.| _ ..E =   o % * * * * ",
"* * * * o X X % 7 9 9 9 8 8 8 8 8 8 8 8 9 9 9 7 % o o o o % X & x b v v p p p p n n l d T [ ( _ u.g.g.u._ ( [ ^ -   o % * * * * ",
": : : : & % % & 7 9 9 9 9 9 9 9 9 9 9 9 9 9 9 7 % o % % o o X % x b v v l n n n n p k a W | _ ` @.;.;.$.` _ | E -   o % * * * * ",
"x x x x i u i u 9 9 9 9 x v x x n p p p 9 8 9 8 * * * * o o X & x b v v v v v x 9 9 9 r ;.t.d.$.6 2 2 6 @.u.u.$.-   % # * * * * ",
"b b v v n n n n 9 9 8 9 v v v v n p n p 9 8 9 8 ; * * * o o X & x b v v v v v v 9 9 8 r 4.d.g.;.2 & & 2 ;.g.g.$.-   o % * * * * ",
"v v v v n p l p 9 9 9 9 v v v v n l n p 9 9 9 9 ; * * * % o X & x b b b b v b x 9 8 8 r ;.z.g.;.2 & & 2 5.g.g.;.-   o % * * * * ",
"v b b v n n n y 9 7 7 9 v b v v n n l n 8 7 8 7 ; ; * * %   X & z x x x x v v x 9 9 8 r ;.d.u.$.6 4 2 6 O.8.9.O.-   o % * * * * ",
"v v v v v x v z & % % & x b v v v v v x : * * * * * * * % o o % ; > : < 9 9 9 9 9 9 8 r W | _ ` $.=.5.O.L K L H =   o . % % % % ",
"b v v v v v b z & X X & x b v v v v b x : * * * * * * * % o o % * * * * 7 9 8 8 9 9 8 e ^ [ ( ' t.g.k.q.K F H Z = @ o # o o o o ",
"b b b b b b b x % X X & x b v b b v v x : * * * * * * * % o o % * * * ; 8 9 9 9 9 9 8 e T  ._ | d.g.d.3.L A K Z O   X X o X X X ",
"x x x x x x x z % X X & z v v v v v v z : * * * * * * * % % % % * * * ; 7 8 8 8 7 7 7 e I E ^ E ;.1.7.-.G F F g - # % & % % % % ",
"& & & & & & & & o   X % 9 9 9 9 q 9 9 8 ; * * * % % % % * * * * * * * * * ; ; * % % % % = = = ; M C V V M M M M i t i i i i i i ",
"X X X X X X   X o o X % 7 9 8 8 8 8 9 7 ; * * * o o o # * * * * * * * * * * * * o o o o       # x v v v v v v v l n n n n n n n ",
"X X X X o o o o o $ X % 8 9 9 9 9 9 9 8 ; * * * o X X o * * * * * * * * * * * * o X     o o X & x b b v v v b v l p n n n n n n ",
"& % & % % % % # % o o % 7 8 7 7 7 7 8 7 * * * * % % % & : : ; : : : : : : : : : % % # % % o o & z x x x v v v x n n n n l n n n ",
"z x x z 8 7 8 7 * * * * % % % % % % % % % % o & u i u i x x x x x x x x x x x z 9 7 8 7 * * * * & & % & 9 9 9 9 n n n n n n n n ",
"b b b v 9 9 9 9 ; * * * . X     o X X X o o X % t n n n v v b b v b b b b b b v 9 9 9 8 ; * * * o X X % 7 9 8 9 p p n n n n l n ",
"v v v v 9 8 8 8 * & & & @       o o   o   o X % i n n n v v v v v v v v v v v v 9 8 8 7 ; * * * % o o % 7 9 9 9 p n n n n n n n ",
"v v v v w e r e 4 2 4 2 = O = = o o o o o o X % u n p l v v v v v v v v v v b v 9 9 9 8 ; * * * % % o % 8 9 8 9 p p p n n n n n ",
"b v c N I / ^ W $.;.5.O.H Z F f O   o o o o X % 9 9 9 9 v b v v v v v v b v v v l p n i ; * * * * * * * 8 9 9 9 9 9 9 9 x v v v ",
"v v v N W ..[ | u.g.g.9.L H K F = @ o o o o o % 7 q 8 9 v v v v v v v v v v v v n n n p > * * * * * * ; 8 9 9 9 9 9 8 9 v v v v ",
"b b v B T [ ( _ u.g.x.t.K F K Z =   X X o   X % 8 9 8 9 v b v b b b b b v v v v l p n t ; * * * * * * ; 8 9 9 9 9 9 9 9 v b v b ",
"x x x N T | _ ` @.;.5.O.L H L F - # % % % % % & 8 9 9 9 x v v v v v v v v v v v n n n p : * ; * * * * ; 7 8 8 8 9 9 8 9 x v x v ",
": : : 5 $.u.u.$.6 2 2 6 U ( ( U a t i u 9 7 7 9 i p n p 9 9 9 9 9 9 9 9 v v v v b v b x 9 7 8 7 ; * * * ; ; * > 8 9 9 9 9 9 9 9 ",
"* * * 2 ;.g.g.;.2 & & , ^  .[ W d l n n 9 9 8 9 p n n p 9 8 9 9 9 9 8 9 v b v v v v b v 9 9 9 8 ; * * * * * * * 8 9 9 9 9 9 9 9 ",
"* ; & 2 5.g.g.5.2 & & , ^ | [ Q a l n p 9 9 9 9 y n n p 9 8 9 9 9 9 9 9 v b v v v v v v 9 8 9 7 * * * * * * * ; 8 9 8 9 9 9 9 9 ",
"; ; & 4 O.9.t.O.6 , , 3 U ( ( U d l n n 9 9 9 9 n n n p 9 9 9 9 9 9 8 9 v b b v v v v x 9 9 9 9 : : : : * * * * 9 9 9 9 9 9 9 9 ",
"9 8 8 0 H L K L U ^ ^ ^ L K L G M v b x 9 9 9 9 x v v v y p p y 9 9 9 9 x b v b n n n n n n p p z x x z & . o # u l p n n n n n ",
"9 9 8 q D H F K ( | | ' K F H F M v b v q 8 8 9 v b v v n n n p 9 9 9 q v v v v l p p p n n n n v b b x % X X % i n n n n n n n ",
"8 9 8 q F J H L ( } } ( L H S F M b b v 9 9 9 9 v v v v n y n p 9 8 8 9 v b v v n n n n n n p n v v b x & o X % i n p n n n n n ",
"9 9 9 q g F D H U T W I G F F h M v v x 9 7 7 9 v b v v n n n p 9 9 9 9 z x x x i u u i n n n n v v b x & X X % u n p n n n n n ",
"n p p p q 0 0 0 e r e r M M M M 9 9 9 9 & % o & x b b v v v v v p p p u & % & # & & % & z v v v v v b x & X X % i n n n n n p n ",
"n n n p 8 8 8 8 8 8 8 9 v v v v 9 8 9 7 % X X & x v v v v b v v n p n i % X   X   o X & x b v v v v b x & X X & u n p n l n n n ",
"n p l y 9 9 9 9 9 q 9 9 v b b v 9 9 9 8 % X X & x v v v v b b v n n n p #             # j b v v v v b x & X X % p n n n n n n n ",
"n p n p 9 7 7 7 7 8 7 9 z x x x 9 7 8 7 % % # & x v x v v v v x i u p u - O = O = = + - m M M M x v b z & % % & u p u i n n n n ",
"n n n i & % # % % % % % ; : > : ; ; * > 7 8 7 9 t n n p 9 9 9 9 & % # - g F Z D Y E E P G F F g w 9 9 9 7 7 8 7 & % % & t n n n ",
"n p n u % X o X   o X o * * * * * * * ; 8 9 9 9 p n n p 9 8 9 7 % X   O F K H L ( | X.( L H K F 0 8 9 9 9 9 9 8 % X X % t n p n ",
"n n n p % X o o   o X o * * * * * * * ; 7 9 9 9 p n n p 9 9 9 8 % .   O Z H A K ( } } ( K F H D 0 8 9 9 9 9 9 7 % o X % p l n n ",
"i u p t & o % % % % % # * ; ; ; * * * ; 8 9 8 9 p p p i 9 7 8 7 % % % = F L K L U ^ ^ U L K L H q 8 9 9 9 9 9 7 % o o & u p i p ",
"% % % & * * * * 7 8 7 7 8 8 8 7 ; * * ; 8 9 9 9 9 9 9 9 & % % % 7 8 7 e U ( ( U 3 , , 6 U ( ( U a y p i 9 8 9 8 * * * * ; > ; ; ",
"X X X o * * * ; 8 9 9 9 9 9 9 8 ; * * ; 8 9 9 9 8 8 9 8 % X X % 8 9 8 e W } | ^ , & & , ^ | [ W d l n p 9 8 9 8 ; * * * * * * * ",
"o o o % * * * ; 7 9 8 8 8 9 9 8 * * * * 8 9 8 9 8 9 9 8 % o % % 7 9 8 e W } | ^ 2 & & ; ^ | [ W a l n p 9 8 9 8 ; * * * * * * * ",
"o o o % ; > ; < 9 9 9 9 9 9 9 9 : ; ; : 9 9 9 9 8 8 8 7 #     % 7 q 8 e ^ ( ( ^ 3 , , 3 ^ ( ( U d l n n 9 8 9 8 ; * * * * * * * ",
"o o   % u p i y p n p n x v v x p t y p p p p i : ; * * o o X % 7 9 8 e H L K L U ^ ^ ^ L K L H s n n n 9 8 9 8 ; * * * * * * * ",
"o o X & p n n n n n n n v b b v n n n n n n n p ; * * * % o   % 7 9 8 0 D H F K (  .| ( K F H F a l n p 9 9 9 7 ; * * * * * * * ",
"X o X % u n n n n n p n v v v v n p n n n n n t ; * * * % o X % 8 9 8 e F K H L ( } } ( L H K F a n n p 9 8 9 8 * * * * * * * * ",
"% % % & i n n l l n n n v v v v l n n n n n n p ; * * * % % o % 7 8 7 0 g D g F ^ E E U H D F g a i p u 9 9 9 9 : ; > ; * * * * ",
"7 7 7 9 p n n n v v v v n n n n b v v b n p n p ; * * * * * * * % % % # O = O = e r e e 0 q q 0 1 ; ; < u p p p p i p u &   o % ",
"9 9 9 9 p p p n v v v v n n n p v v v v n p n i ; * * * * * * * . X   X       % 7 8 8 8 9 8 8 8 * * * ; p n n n n n n p % X o o ",
"9 9 8 9 p n n n v b b v n n n n v v v v n n n p > * * * * * * * % o o . o o   % 8 9 9 9 9 9 9 8 ; * * > t n p n p p n t % X o X ",
"9 8 9 9 i p p y x v v x n n n n v v v v p u p u ; * * * * * * * % o . o o o X % 7 8 8 8 8 8 8 7 ; * * ; p n n n n n n i & % % % ",
"9 9 9 9 9 9 9 9 9 9 9 9 x v v v b v b x & % & % % % % % * * * * % $ o o o o o o # % # % * ; ; ; * * * ; p n p n n n n p 9 7 7 7 ",
"9 9 9 9 9 9 9 9 8 9 8 9 v b v v v v b x % X o X o % o % * * * * %   o o o o o o X X X o * * * * * * * ; p n n n n n n p 9 9 9 9 ",
"9 9 9 9 9 9 9 9 9 9 9 9 v b v v v v b x & X % o o o o % * * * * % o o o % o o o o $ o o * * * * * * * ; p n n n n n l n 9 8 9 9 ",
"9 9 9 9 9 9 9 9 9 9 8 q v b v v v v b x & X o o o o o % * * * * % o o o o   o o o o o % * * * * * * * ; p n n n n n n n 9 9 9 9 "
};
